<svg xmlns="http://www.w3.org/2000/svg" xmlns:xlink="http://www.w3.org/1999/xlink" width="500" zoomAndPan="magnify" viewBox="0 0 375 374.999991" height="500" preserveAspectRatio="xMidYMid meet" version="1.0"><defs><clipPath id="3b39ec9b6a"><path d="M 64.972656 92.019531 L 276.472656 92.019531 L 276.472656 303.519531 L 64.972656 303.519531 Z M 64.972656 92.019531 " clip-rule="nonzero"/></clipPath></defs><g clip-path="url(#3b39ec9b6a)"><path fill="#119f11" d="M 64.972656 197.777344 C 64.972656 139.367188 112.320312 92.019531 170.730469 92.019531 C 229.136719 92.019531 276.472656 139.367188 276.472656 197.777344 C 276.472656 256.183594 229.136719 303.519531 170.730469 303.519531 C 112.320312 303.519531 64.972656 256.183594 64.972656 197.777344 Z M 64.972656 197.777344 " fill-opacity="1" fill-rule="evenodd"/></g><path fill="#f3f3f3" d="M 135.824219 237.550781 C 130.664062 231.210938 131.628906 221.804688 137.96875 216.65625 L 212.722656 155.84375 C 219.054688 150.695312 228.460938 151.660156 233.621094 158 C 238.78125 164.339844 237.804688 173.746094 231.472656 178.898438 L 156.71875 239.707031 C 150.378906 244.855469 140.984375 243.890625 135.824219 237.550781 Z M 135.824219 237.550781 " fill-opacity="1" fill-rule="evenodd"/><path fill="#f3f3f3" d="M 109.984375 182.523438 C 116.324219 177.375 125.730469 178.339844 130.890625 184.679688 L 158.414062 218.519531 C 163.574219 224.851562 162.597656 234.257812 156.257812 239.417969 C 149.917969 244.578125 140.523438 243.601562 135.363281 237.273438 L 107.835938 203.429688 C 102.679688 197.089844 103.644531 187.683594 109.984375 182.523438 Z M 109.984375 182.523438 " fill-opacity="1" fill-rule="evenodd"/></svg>