<svg xmlns="http://www.w3.org/2000/svg" xmlns:xlink="http://www.w3.org/1999/xlink" width="500" zoomAndPan="magnify" viewBox="0 0 375 374.999991" height="500" preserveAspectRatio="xMidYMid meet" version="1.0"><defs><clipPath id="268acdb64f"><path d="M 87 286.78125 L 156 286.78125 L 156 324 L 87 324 Z M 87 286.78125 " clip-rule="nonzero"/></clipPath><clipPath id="68ce3e70e0"><path d="M 25.578125 25.578125 L 349.578125 25.578125 L 349.578125 349.578125 L 25.578125 349.578125 Z M 25.578125 25.578125 " clip-rule="nonzero"/></clipPath></defs><g clip-path="url(#268acdb64f)"><path fill="#ffffff" d="M 87 286.78125 L 155.554688 286.78125 L 155.554688 323.695312 L 87 323.695312 Z M 87 286.78125 " fill-opacity="1" fill-rule="nonzero"/></g><g clip-path="url(#68ce3e70e0)"><path fill="#ffffff" d="M 25.578125 25.578125 L 349.578125 25.578125 L 349.578125 349.578125 L 25.578125 349.578125 Z M 25.578125 25.578125 " fill-opacity="1" fill-rule="nonzero"/></g><path fill="#000000" d="M 176.753906 176.753906 C 174.359375 176.753906 171.894531 176.753906 169.433594 176.753906 C 169.433594 174.230469 169.433594 171.832031 169.433594 169.304688 C 171.832031 169.304688 174.164062 169.304688 176.625 169.304688 C 176.625 166.839844 176.625 164.507812 176.625 162.109375 C 179.152344 162.109375 181.550781 162.109375 184.011719 162.109375 C 184.011719 164.507812 184.011719 166.839844 184.011719 169.304688 C 186.476562 169.304688 188.808594 169.304688 191.207031 169.304688 C 191.207031 171.832031 191.207031 174.164062 191.207031 176.625 C 188.808594 176.625 186.476562 176.625 184.011719 176.625 C 184.011719 179.089844 184.011719 181.421875 184.011719 183.882812 C 181.550781 183.882812 179.152344 183.882812 176.753906 183.882812 C 176.753906 186.347656 176.753906 188.679688 176.753906 191.011719 C 181.550781 191.011719 186.28125 191.011719 191.140625 191.011719 C 191.140625 188.613281 191.140625 186.28125 191.140625 183.820312 C 196.066406 183.820312 200.796875 183.820312 205.65625 183.820312 C 205.65625 181.355469 205.65625 179.089844 205.65625 176.625 C 203.257812 176.625 200.925781 176.625 198.527344 176.625 C 198.527344 174.164062 198.527344 171.765625 198.527344 169.238281 C 200.925781 169.238281 203.257812 169.238281 205.65625 169.238281 C 205.65625 166.839844 205.65625 164.507812 205.65625 162.109375 C 203.257812 162.109375 200.925781 162.109375 198.464844 162.109375 C 198.464844 159.648438 198.464844 157.316406 198.464844 154.851562 C 196 154.851562 193.667969 154.851562 191.207031 154.851562 C 191.207031 152.390625 191.207031 150.058594 191.207031 147.597656 C 188.742188 147.597656 186.410156 147.597656 184.011719 147.597656 C 184.011719 145.070312 184.011719 142.671875 184.011719 140.207031 C 186.476562 140.207031 188.808594 140.207031 191.269531 140.207031 C 191.269531 142.605469 191.269531 144.9375 191.269531 147.335938 C 193.667969 147.335938 196 147.335938 198.464844 147.335938 C 198.464844 145.003906 198.464844 142.671875 198.464844 140.144531 C 200.925781 140.144531 203.257812 140.144531 205.722656 140.144531 C 205.722656 137.679688 205.722656 135.414062 205.722656 133.015625 C 203.324219 133.015625 200.992188 133.015625 198.527344 133.015625 C 198.527344 130.554688 198.527344 128.21875 198.527344 125.824219 C 196.066406 125.824219 193.734375 125.824219 191.269531 125.824219 C 191.269531 128.15625 191.269531 130.554688 191.269531 132.949219 C 188.808594 132.949219 186.476562 132.949219 184.011719 132.949219 C 184.011719 128.089844 184.011719 123.296875 184.011719 118.371094 C 188.742188 118.371094 193.605469 118.371094 198.464844 118.371094 C 198.464844 120.703125 198.464844 123.035156 198.464844 125.433594 C 200.863281 125.433594 203.195312 125.433594 205.65625 125.433594 C 205.65625 123.101562 205.65625 120.769531 205.65625 118.304688 C 208.117188 118.304688 210.453125 118.304688 212.847656 118.304688 C 212.847656 115.910156 212.847656 113.640625 212.847656 111.179688 C 210.515625 111.179688 208.183594 111.179688 205.65625 111.179688 C 205.65625 108.714844 205.65625 106.382812 205.65625 103.921875 C 203.195312 103.921875 200.863281 103.921875 198.464844 103.921875 C 198.464844 106.253906 198.464844 108.652344 198.464844 111.113281 C 183.882812 111.113281 169.433594 111.113281 154.917969 111.113281 C 154.917969 113.511719 154.917969 115.84375 154.917969 118.242188 C 157.316406 118.242188 159.648438 118.242188 162.109375 118.242188 C 162.109375 120.703125 162.109375 123.035156 162.109375 125.5 C 164.574219 125.5 166.90625 125.5 169.367188 125.5 C 169.367188 127.960938 169.367188 130.359375 169.367188 132.757812 C 171.832031 132.757812 174.164062 132.757812 176.5625 132.757812 C 176.5625 137.679688 176.5625 142.542969 176.5625 147.464844 C 174.164062 147.464844 171.765625 147.464844 169.304688 147.464844 C 169.304688 142.671875 169.304688 137.875 169.304688 133.015625 C 166.90625 133.015625 164.574219 133.015625 162.046875 133.015625 C 162.046875 130.554688 162.046875 128.15625 162.046875 125.695312 C 159.582031 125.695312 157.25 125.695312 154.789062 125.695312 C 154.789062 123.230469 154.789062 120.898438 154.789062 118.5 C 152.390625 118.5 150.058594 118.5 147.660156 118.5 C 147.660156 120.832031 147.660156 123.167969 147.660156 125.628906 C 142.734375 125.628906 137.875 125.628906 132.949219 125.628906 C 132.949219 123.296875 132.949219 120.898438 132.949219 118.5 C 128.089844 118.5 123.359375 118.5 118.566406 118.5 C 118.566406 120.898438 118.566406 123.230469 118.566406 125.628906 C 116.039062 125.628906 113.640625 125.628906 111.179688 125.628906 C 111.179688 123.230469 111.179688 120.832031 111.179688 118.304688 C 113.574219 118.304688 115.910156 118.304688 118.304688 118.304688 C 118.304688 113.511719 118.304688 108.714844 118.304688 103.921875 C 115.910156 103.921875 113.574219 103.921875 111.179688 103.921875 C 111.179688 96.597656 111.179688 89.339844 111.179688 82.082031 C 113.574219 82.082031 115.972656 82.082031 118.5 82.082031 C 118.5 84.480469 118.5 86.8125 118.5 89.210938 C 120.898438 89.210938 123.167969 89.210938 125.5625 89.210938 C 125.5625 82.082031 125.5625 74.890625 125.5625 67.632812 C 118.4375 67.632812 111.242188 67.632812 103.984375 67.632812 C 103.984375 77.289062 103.984375 86.878906 103.984375 96.535156 C 101.457031 96.535156 99.125 96.535156 96.664062 96.535156 C 96.664062 82.019531 96.664062 67.566406 96.664062 52.921875 C 98.996094 52.921875 101.394531 52.921875 103.855469 52.921875 C 103.855469 48 103.855469 43.203125 103.855469 38.40625 C 108.78125 38.40625 113.574219 38.40625 118.5 38.40625 C 118.5 45.664062 118.5 52.859375 118.5 60.117188 C 123.359375 60.117188 128.089844 60.117188 132.886719 60.117188 C 132.886719 57.78125 132.886719 55.449219 132.886719 52.988281 C 130.488281 52.988281 128.15625 52.988281 125.757812 52.988281 C 125.757812 48.0625 125.757812 43.269531 125.757812 38.40625 C 128.21875 38.40625 130.617188 38.40625 133.082031 38.40625 C 133.082031 43.203125 133.082031 48 133.082031 52.859375 C 137.941406 52.859375 142.734375 52.859375 147.597656 52.859375 C 147.597656 60.179688 147.597656 67.375 147.597656 74.761719 C 145.261719 74.761719 142.867188 74.761719 140.46875 74.761719 C 140.46875 77.222656 140.46875 79.554688 140.46875 81.953125 C 142.867188 81.953125 145.199219 81.953125 147.597656 81.953125 C 147.597656 84.414062 147.597656 86.8125 147.597656 89.339844 C 145.199219 89.339844 142.867188 89.339844 140.46875 89.339844 C 140.46875 91.738281 140.46875 94.070312 140.46875 96.46875 C 142.800781 96.46875 145.132812 96.46875 147.597656 96.46875 C 147.597656 98.929688 147.597656 101.328125 147.597656 103.855469 C 140.402344 103.855469 133.210938 103.855469 125.886719 103.855469 C 125.886719 106.253906 125.886719 108.585938 125.886719 110.984375 C 128.21875 110.984375 130.617188 110.984375 133.082031 110.984375 C 133.082031 113.445312 133.082031 115.777344 133.082031 118.175781 C 137.941406 118.175781 142.671875 118.175781 147.53125 118.175781 C 147.53125 115.84375 147.53125 113.445312 147.53125 110.984375 C 149.992188 110.984375 152.328125 110.984375 154.789062 110.984375 C 154.789062 108.519531 154.789062 106.1875 154.789062 103.726562 C 157.25 103.726562 159.582031 103.726562 162.046875 103.726562 C 162.046875 101.328125 162.046875 98.996094 162.046875 96.535156 C 159.714844 96.535156 157.378906 96.535156 154.917969 96.535156 C 154.917969 89.144531 154.917969 81.953125 154.917969 74.632812 C 157.316406 74.632812 159.714844 74.632812 162.175781 74.632812 C 162.175781 81.824219 162.175781 89.015625 162.175781 96.339844 C 164.636719 96.339844 167.035156 96.339844 169.433594 96.339844 C 169.433594 98.800781 169.433594 101.132812 169.433594 103.53125 C 179.152344 103.53125 188.742188 103.53125 198.398438 103.53125 C 198.398438 101.199219 198.398438 98.867188 198.398438 96.46875 C 193.605469 96.46875 188.808594 96.46875 183.949219 96.46875 C 183.949219 89.144531 183.949219 81.953125 183.949219 74.632812 C 179.023438 74.632812 174.230469 74.632812 169.433594 74.632812 C 169.433594 72.105469 169.433594 69.769531 169.433594 67.308594 C 171.832031 67.308594 174.164062 67.308594 176.5625 67.308594 C 176.5625 64.910156 176.5625 62.578125 176.5625 60.179688 C 171.765625 60.179688 167.101562 60.179688 162.242188 60.179688 C 162.242188 62.578125 162.242188 64.910156 162.242188 67.308594 C 159.714844 67.308594 157.316406 67.308594 154.851562 67.308594 C 154.851562 60.050781 154.851562 52.859375 154.851562 45.601562 C 149.992188 45.601562 145.199219 45.601562 140.339844 45.601562 C 140.339844 43.136719 140.339844 40.742188 140.339844 38.277344 C 157.316406 38.277344 174.230469 38.277344 191.269531 38.277344 C 191.269531 43.074219 191.269531 47.804688 191.269531 52.664062 C 193.667969 52.664062 196 52.664062 198.464844 52.664062 C 198.464844 50.332031 198.464844 48 198.464844 45.535156 C 200.925781 45.535156 203.257812 45.535156 205.785156 45.535156 C 205.785156 43.074219 205.785156 40.742188 205.785156 38.277344 C 208.25 38.277344 210.644531 38.277344 213.109375 38.277344 C 213.109375 40.609375 213.109375 42.945312 213.109375 45.472656 C 218.035156 45.472656 222.828125 45.472656 227.625 45.472656 C 227.625 47.867188 227.625 50.265625 227.625 52.730469 C 222.765625 52.730469 217.96875 52.730469 213.042969 52.730469 C 213.042969 50.332031 213.042969 47.933594 213.042969 45.601562 C 210.582031 45.601562 208.25 45.601562 205.914062 45.601562 C 205.914062 50.460938 205.914062 55.191406 205.914062 59.984375 C 205.914062 59.984375 205.851562 60.050781 205.851562 60.050781 C 203.453125 60.050781 201.121094 60.050781 198.59375 60.050781 C 198.59375 64.976562 198.59375 69.769531 198.59375 74.632812 C 196.132812 74.632812 193.796875 74.632812 191.464844 74.632812 C 191.464844 79.492188 191.464844 84.222656 191.464844 88.953125 C 193.863281 88.953125 196.195312 88.953125 198.59375 88.953125 C 198.59375 86.554688 198.59375 84.222656 198.59375 81.824219 C 201.054688 81.824219 203.453125 81.824219 205.980469 81.824219 C 205.980469 84.222656 205.980469 86.554688 205.980469 88.953125 C 208.378906 88.953125 210.710938 88.953125 213.171875 88.953125 C 213.171875 86.554688 213.171875 84.15625 213.171875 81.824219 C 215.699219 81.824219 218.035156 81.824219 220.429688 81.824219 C 220.429688 84.285156 220.429688 86.617188 220.429688 89.144531 C 218.035156 89.144531 215.636719 89.144531 213.304688 89.144531 C 213.304688 91.609375 213.304688 93.875 213.304688 96.210938 C 218.097656 96.210938 222.894531 96.210938 227.753906 96.210938 C 227.753906 91.347656 227.753906 86.554688 227.753906 81.695312 C 230.214844 81.695312 232.546875 81.695312 234.945312 81.695312 C 234.945312 79.296875 234.945312 76.964844 234.945312 74.5 C 232.546875 74.5 230.152344 74.5 227.6875 74.5 C 227.6875 72.039062 227.6875 69.707031 227.6875 67.242188 C 225.226562 67.242188 222.894531 67.242188 220.496094 67.242188 C 220.496094 64.714844 220.496094 62.382812 220.496094 59.921875 C 227.753906 59.921875 234.945312 59.921875 242.140625 59.921875 C 242.140625 57.460938 242.140625 55.125 242.140625 52.730469 C 239.742188 52.730469 237.410156 52.730469 234.945312 52.730469 C 234.945312 50.265625 234.945312 47.933594 234.945312 45.472656 C 232.417969 45.472656 230.085938 45.472656 227.6875 45.472656 C 227.6875 43.074219 227.6875 40.675781 227.6875 38.214844 C 230.214844 38.214844 232.546875 38.214844 235.011719 38.214844 C 235.011719 40.609375 235.011719 42.945312 235.011719 45.339844 C 237.472656 45.339844 239.804688 45.339844 242.203125 45.339844 C 242.203125 43.007812 242.203125 40.675781 242.203125 38.214844 C 254.386719 38.214844 266.4375 38.214844 278.621094 38.214844 C 278.621094 43.007812 278.621094 47.804688 278.621094 52.730469 C 276.289062 52.730469 273.957031 52.730469 271.492188 52.730469 C 271.492188 55.191406 271.492188 57.523438 271.492188 59.984375 C 273.890625 59.984375 276.222656 59.984375 278.6875 59.984375 C 278.6875 74.566406 278.6875 89.015625 278.6875 103.53125 C 281.082031 103.53125 283.417969 103.53125 285.8125 103.53125 C 285.8125 101.132812 285.8125 98.800781 285.8125 96.402344 C 297.996094 96.402344 310.113281 96.402344 322.230469 96.402344 C 322.230469 98.800781 322.230469 101.132812 322.230469 103.597656 C 327.089844 103.597656 331.886719 103.597656 336.746094 103.597656 C 336.746094 106.125 336.746094 108.519531 336.746094 110.984375 C 334.414062 110.984375 332.082031 110.984375 329.617188 110.984375 C 329.617188 113.382812 329.617188 115.648438 329.617188 118.113281 C 331.953125 118.113281 334.285156 118.113281 336.746094 118.113281 C 336.746094 120.640625 336.746094 123.035156 336.746094 125.5625 C 334.414062 125.5625 332.082031 125.5625 329.617188 125.5625 C 329.617188 127.960938 329.617188 130.230469 329.617188 132.691406 C 331.953125 132.691406 334.285156 132.691406 336.746094 132.691406 C 336.746094 135.21875 336.746094 137.679688 336.746094 140.207031 C 334.347656 140.207031 332.015625 140.207031 329.554688 140.207031 C 329.554688 145.070312 329.554688 149.863281 329.554688 154.722656 C 327.089844 154.722656 324.757812 154.722656 322.363281 154.722656 C 322.363281 157.121094 322.363281 159.453125 322.363281 161.851562 C 327.15625 161.851562 331.886719 161.851562 336.746094 161.851562 C 336.746094 164.3125 336.746094 166.710938 336.746094 169.238281 C 329.554688 169.238281 322.363281 169.238281 315.105469 169.238281 C 315.105469 174.097656 315.105469 178.828125 315.105469 183.625 C 317.4375 183.625 319.769531 183.625 322.167969 183.625 C 322.167969 181.292969 322.167969 178.957031 322.167969 176.496094 C 324.628906 176.496094 327.027344 176.496094 329.617188 176.496094 C 329.617188 178.894531 329.617188 181.355469 329.617188 183.753906 C 327.222656 183.753906 324.824219 183.753906 322.363281 183.753906 C 322.363281 186.214844 322.363281 188.550781 322.363281 190.816406 C 324.757812 190.816406 327.089844 190.816406 329.488281 190.816406 C 329.488281 190.300781 329.488281 189.84375 329.488281 189.390625 C 329.488281 187.511719 329.554688 185.632812 329.617188 183.6875 C 332.015625 183.6875 334.347656 183.6875 336.8125 183.6875 C 336.8125 188.484375 336.8125 193.28125 336.8125 198.203125 C 329.617188 198.203125 322.425781 198.203125 315.167969 198.203125 C 315.167969 203.066406 315.167969 207.859375 315.167969 212.65625 C 319.898438 212.65625 324.628906 212.65625 329.488281 212.65625 C 329.488281 210.320312 329.488281 207.925781 329.488281 205.527344 C 332.015625 205.527344 334.347656 205.527344 336.8125 205.527344 C 336.8125 207.925781 336.8125 210.257812 336.8125 212.785156 C 334.480469 212.785156 332.082031 212.785156 329.683594 212.785156 C 329.683594 215.246094 329.683594 217.515625 329.683594 219.976562 C 332.015625 219.976562 334.414062 219.976562 336.8125 219.976562 C 336.8125 222.503906 336.8125 224.835938 336.8125 227.300781 C 334.480469 227.300781 332.082031 227.300781 329.554688 227.300781 C 329.554688 224.96875 329.554688 222.632812 329.554688 220.171875 C 324.695312 220.171875 319.964844 220.171875 315.105469 220.171875 C 315.105469 222.503906 315.105469 224.902344 315.105469 227.363281 C 312.640625 227.363281 310.308594 227.363281 307.910156 227.363281 C 307.910156 229.761719 307.910156 232.09375 307.910156 234.558594 C 310.242188 234.558594 312.640625 234.558594 315.039062 234.558594 C 315.039062 237.019531 315.039062 239.351562 315.039062 241.75 C 317.4375 241.75 319.769531 241.75 322.230469 241.75 C 322.230469 239.417969 322.230469 237.085938 322.230469 234.621094 C 324.695312 234.621094 327.089844 234.621094 329.554688 234.621094 C 329.554688 236.953125 329.554688 239.351562 329.554688 241.878906 C 327.222656 241.878906 324.824219 241.878906 322.425781 241.878906 C 322.425781 244.34375 322.425781 246.609375 322.425781 249.007812 C 327.15625 249.007812 331.953125 249.007812 336.8125 249.007812 C 336.8125 251.535156 336.8125 253.933594 336.8125 256.394531 C 332.015625 256.394531 327.222656 256.394531 322.296875 256.394531 C 322.296875 253.996094 322.296875 251.664062 322.296875 249.265625 C 319.835938 249.265625 317.5 249.265625 315.105469 249.265625 C 315.105469 251.601562 315.105469 253.996094 315.105469 256.460938 C 312.640625 256.460938 310.308594 256.460938 307.847656 256.460938 C 307.847656 258.855469 307.847656 261.191406 307.847656 263.585938 C 310.242188 263.585938 312.578125 263.585938 315.039062 263.585938 C 315.039062 266.050781 315.039062 268.382812 315.039062 270.78125 C 317.4375 270.78125 319.769531 270.78125 322.167969 270.78125 C 322.167969 268.449219 322.167969 266.113281 322.167969 263.652344 C 327.089844 263.652344 331.886719 263.652344 336.746094 263.652344 C 336.746094 270.910156 336.746094 278.167969 336.746094 285.554688 C 331.953125 285.554688 327.222656 285.554688 322.363281 285.554688 C 322.363281 287.953125 322.363281 290.285156 322.363281 292.683594 C 324.757812 292.683594 327.089844 292.683594 329.554688 292.683594 C 329.554688 297.542969 329.554688 302.339844 329.554688 307.199219 C 332.015625 307.199219 334.347656 307.199219 336.746094 307.199219 C 336.746094 309.726562 336.746094 312.058594 336.746094 314.585938 C 331.953125 314.585938 327.222656 314.585938 322.363281 314.585938 C 322.363281 317.113281 322.363281 319.511719 322.363281 321.90625 C 319.964844 321.90625 317.566406 321.90625 315.105469 321.90625 C 315.105469 324.304688 315.105469 326.636719 315.105469 328.972656 C 317.5 328.972656 319.835938 328.972656 322.230469 328.972656 C 322.230469 328.191406 322.230469 327.414062 322.230469 326.703125 C 322.296875 325.082031 322.296875 323.464844 322.363281 321.84375 C 324.757812 321.84375 327.089844 321.84375 329.554688 321.84375 C 329.554688 324.242188 329.554688 326.574219 329.554688 329.101562 C 327.222656 329.101562 324.824219 329.101562 322.363281 329.101562 C 322.363281 331.5625 322.363281 333.894531 322.363281 336.292969 C 319.898438 336.292969 317.5 336.292969 314.972656 336.292969 C 314.972656 333.960938 314.972656 331.5625 314.972656 329.164062 C 312.511719 329.164062 310.242188 329.164062 307.847656 329.164062 C 307.847656 331.5625 307.847656 333.894531 307.847656 336.292969 C 302.921875 336.292969 298.125 336.292969 293.203125 336.292969 C 293.203125 333.960938 293.203125 331.5625 293.203125 329.035156 C 295.535156 329.035156 297.933594 329.035156 300.328125 329.035156 C 300.328125 326.574219 300.328125 324.242188 300.328125 321.84375 C 290.675781 321.84375 281.082031 321.84375 271.300781 321.84375 C 271.300781 319.378906 271.300781 317.046875 271.300781 314.519531 C 268.835938 314.519531 266.4375 314.519531 264.042969 314.519531 C 264.042969 312.058594 264.042969 309.660156 264.042969 307.132812 C 266.375 307.132812 268.773438 307.132812 271.167969 307.132812 C 271.167969 302.273438 271.167969 297.542969 271.167969 292.746094 C 268.835938 292.746094 266.4375 292.746094 263.976562 292.746094 C 263.976562 290.285156 263.976562 287.953125 263.976562 285.554688 C 259.179688 285.554688 254.386719 285.554688 249.589844 285.554688 C 249.589844 290.285156 249.589844 295.015625 249.589844 299.8125 C 251.988281 299.8125 254.320312 299.8125 256.71875 299.8125 C 256.71875 302.339844 256.71875 304.734375 256.71875 307.199219 C 254.386719 307.199219 252.054688 307.199219 249.589844 307.199219 C 249.589844 309.597656 249.589844 311.863281 249.589844 314.324219 C 251.921875 314.324219 254.257812 314.324219 256.71875 314.324219 C 256.71875 316.851562 256.71875 319.25 256.71875 321.714844 C 254.320312 321.714844 251.988281 321.714844 249.589844 321.714844 C 249.589844 324.109375 249.589844 326.445312 249.589844 328.90625 C 256.847656 328.90625 264.042969 328.90625 271.300781 328.90625 C 271.300781 331.433594 271.300781 333.765625 271.300781 336.230469 C 264.042969 336.230469 256.785156 336.230469 249.460938 336.230469 C 249.460938 333.832031 249.460938 331.5 249.460938 329.035156 C 247 329.035156 244.667969 329.035156 242.203125 329.035156 C 242.203125 326.574219 242.203125 324.242188 242.203125 321.777344 C 232.484375 321.777344 222.894531 321.777344 213.109375 321.777344 C 213.109375 319.316406 213.109375 316.917969 213.109375 314.519531 C 210.644531 314.519531 208.3125 314.519531 205.914062 314.519531 C 205.914062 319.316406 205.914062 324.046875 205.914062 328.972656 C 198.65625 328.972656 191.402344 328.972656 184.078125 328.972656 C 184.078125 331.433594 184.078125 333.832031 184.078125 336.226562 C 181.617188 336.226562 179.21875 336.226562 176.691406 336.226562 C 176.691406 333.832031 176.691406 331.5 176.691406 329.101562 C 171.832031 329.101562 167.101562 329.101562 162.242188 329.101562 C 162.242188 331.5 162.242188 333.832031 162.242188 336.226562 C 159.777344 336.226562 157.378906 336.226562 154.851562 336.226562 C 154.851562 331.433594 154.851562 326.636719 154.851562 321.777344 C 149.929688 321.777344 145.132812 321.777344 140.339844 321.777344 C 140.339844 314.457031 140.339844 307.261719 140.339844 299.941406 C 142.800781 299.941406 145.199219 299.941406 147.726562 299.941406 C 147.726562 302.273438 147.726562 304.671875 147.726562 307.070312 C 157.445312 307.070312 166.972656 307.070312 176.625 307.070312 C 176.625 304.734375 176.625 302.402344 176.625 300.003906 C 171.832031 300.003906 167.035156 300.003906 162.175781 300.003906 C 162.175781 295.144531 162.175781 290.351562 162.175781 285.554688 C 159.777344 285.554688 157.511719 285.554688 155.046875 285.554688 C 155.046875 287.886719 155.046875 290.21875 155.046875 292.683594 C 152.519531 292.683594 150.121094 292.683594 147.660156 292.683594 C 147.660156 290.285156 147.660156 287.824219 147.660156 285.296875 C 150.058594 285.296875 152.390625 285.296875 154.789062 285.296875 C 154.789062 282.898438 154.789062 280.628906 154.789062 278.234375 C 152.457031 278.234375 150.121094 278.234375 147.660156 278.234375 C 147.660156 275.769531 147.660156 273.4375 147.660156 271.039062 C 145.261719 271.039062 142.929688 271.039062 140.53125 271.039062 C 140.53125 273.371094 140.53125 275.707031 140.53125 278.234375 C 138.070312 278.234375 135.671875 278.234375 133.210938 278.234375 C 133.210938 280.695312 133.210938 283.09375 133.210938 285.554688 C 130.746094 285.554688 128.414062 285.554688 126.015625 285.554688 C 126.015625 287.953125 126.015625 290.21875 126.015625 292.683594 C 128.351562 292.683594 130.683594 292.683594 133.082031 292.683594 C 133.082031 295.210938 133.082031 297.609375 133.082031 300.136719 C 130.746094 300.136719 128.351562 300.136719 125.953125 300.136719 C 125.953125 309.855469 125.953125 319.378906 125.953125 329.101562 C 133.210938 329.101562 140.402344 329.101562 147.660156 329.101562 C 147.660156 331.5625 147.660156 333.960938 147.660156 336.421875 C 140.402344 336.421875 133.144531 336.421875 125.757812 336.421875 C 125.757812 334.089844 125.757812 331.691406 125.757812 329.296875 C 123.359375 329.296875 121.027344 329.296875 118.628906 329.296875 C 118.628906 331.691406 118.628906 334.023438 118.628906 336.421875 C 111.308594 336.421875 104.050781 336.421875 96.726562 336.421875 C 96.726562 334.023438 96.726562 331.691406 96.726562 329.164062 C 101.523438 329.164062 106.316406 329.164062 111.113281 329.164062 C 111.113281 324.304688 111.113281 319.574219 111.113281 314.78125 C 108.78125 314.78125 106.511719 314.78125 104.050781 314.78125 C 104.050781 317.175781 104.050781 319.511719 104.050781 321.90625 C 101.523438 321.90625 99.191406 321.90625 96.726562 321.90625 C 96.726562 312.1875 96.726562 302.53125 96.726562 292.746094 C 99.125 292.746094 101.457031 292.746094 103.855469 292.746094 C 103.855469 290.351562 103.855469 288.015625 103.855469 285.683594 C 101.457031 285.683594 99.125 285.683594 96.726562 285.683594 C 96.726562 283.15625 96.726562 280.757812 96.726562 278.234375 C 99.125 278.234375 101.457031 278.234375 103.984375 278.234375 C 103.984375 280.566406 103.984375 282.964844 103.984375 285.359375 C 106.449219 285.359375 108.714844 285.359375 111.113281 285.359375 C 111.113281 283.027344 111.113281 280.628906 111.113281 278.167969 C 116.039062 278.167969 120.769531 278.167969 125.628906 278.167969 C 125.628906 275.769531 125.628906 273.4375 125.628906 271.039062 C 123.230469 271.039062 120.898438 271.039062 118.4375 271.039062 C 118.4375 263.71875 118.4375 256.523438 118.4375 249.265625 C 116.039062 249.265625 113.707031 249.265625 111.242188 249.265625 C 111.242188 254.0625 111.242188 258.855469 111.242188 263.652344 C 108.714844 263.652344 106.382812 263.652344 103.855469 263.652344 C 103.855469 261.253906 103.855469 258.921875 103.855469 256.523438 C 101.457031 256.523438 99.125 256.523438 96.664062 256.523438 C 96.664062 261.320312 96.664062 266.113281 96.664062 271.039062 C 94.199219 271.039062 91.867188 271.039062 89.40625 271.039062 C 89.40625 273.503906 89.40625 275.835938 89.40625 278.234375 C 82.082031 278.234375 74.890625 278.234375 67.566406 278.234375 C 67.566406 275.898438 67.566406 273.566406 67.566406 271.039062 C 62.707031 271.039062 57.914062 271.039062 52.988281 271.039062 C 52.988281 263.71875 52.988281 256.523438 52.988281 249.265625 C 50.523438 249.265625 48.257812 249.265625 45.792969 249.265625 C 45.792969 258.855469 45.792969 268.511719 45.792969 278.234375 C 43.332031 278.234375 40.933594 278.234375 38.472656 278.234375 C 38.472656 263.652344 38.472656 249.203125 38.472656 234.558594 C 43.269531 234.558594 48.0625 234.558594 52.859375 234.558594 C 52.859375 232.160156 52.859375 229.828125 52.859375 227.429688 C 50.523438 227.429688 48.191406 227.429688 45.730469 227.429688 C 45.730469 224.902344 45.730469 222.570312 45.730469 220.042969 C 48.128906 220.042969 50.523438 220.042969 52.988281 220.042969 C 52.988281 222.441406 52.988281 224.835938 52.988281 227.234375 C 55.515625 227.234375 57.847656 227.234375 60.117188 227.234375 C 60.117188 224.835938 60.117188 222.570312 60.117188 220.042969 C 57.652344 220.042969 55.320312 220.042969 52.921875 220.042969 C 52.921875 217.644531 52.921875 215.3125 52.921875 212.71875 C 57.78125 212.71875 62.644531 212.71875 67.4375 212.71875 C 67.4375 212.71875 67.503906 212.785156 67.503906 212.785156 C 67.503906 215.183594 67.503906 217.515625 67.503906 219.976562 C 69.964844 219.976562 72.296875 219.976562 74.695312 219.976562 C 74.695312 222.441406 74.695312 224.835938 74.695312 227.363281 C 69.835938 227.363281 65.105469 227.363281 60.308594 227.363281 C 60.308594 229.761719 60.308594 232.09375 60.308594 234.558594 C 62.707031 234.558594 65.039062 234.558594 67.503906 234.558594 C 67.503906 237.019531 67.503906 239.351562 67.503906 241.75 C 69.964844 241.75 72.296875 241.75 74.761719 241.75 C 74.761719 239.289062 74.761719 236.953125 74.761719 234.492188 C 77.222656 234.492188 79.554688 234.492188 82.019531 234.492188 C 82.019531 232.03125 82.019531 229.699219 82.019531 227.363281 C 84.480469 227.363281 86.878906 227.363281 89.277344 227.363281 C 89.277344 229.828125 89.277344 232.160156 89.277344 234.558594 C 86.878906 234.558594 84.546875 234.558594 82.148438 234.558594 C 82.148438 237.148438 82.148438 239.480469 82.148438 241.75 C 84.546875 241.75 86.878906 241.75 89.277344 241.75 C 89.277344 239.289062 89.277344 236.890625 89.277344 234.492188 C 91.671875 234.492188 94.070312 234.492188 96.597656 234.492188 C 96.597656 229.632812 96.597656 224.835938 96.597656 219.976562 C 99.058594 219.976562 101.394531 219.976562 103.726562 219.976562 C 103.726562 212.71875 103.726562 205.527344 103.726562 198.335938 C 98.929688 198.335938 94.199219 198.335938 89.339844 198.335938 C 89.339844 200.730469 89.339844 203.066406 89.339844 205.460938 C 86.8125 205.460938 84.414062 205.460938 81.953125 205.460938 C 81.953125 203.066406 81.953125 200.730469 81.953125 198.269531 C 77.09375 198.269531 72.296875 198.269531 67.503906 198.269531 C 67.503906 195.808594 67.503906 193.410156 67.503906 190.882812 C 69.964844 190.882812 72.296875 190.882812 74.695312 190.882812 C 74.695312 188.484375 74.695312 186.152344 74.695312 183.6875 C 72.234375 183.6875 69.902344 183.6875 67.4375 183.6875 C 67.4375 181.226562 67.4375 178.894531 67.4375 176.5625 C 65.039062 176.5625 62.707031 176.5625 60.375 176.5625 C 60.375 183.820312 60.375 190.945312 60.375 198.269531 C 62.835938 198.269531 65.171875 198.269531 67.566406 198.269531 C 67.566406 200.667969 67.566406 203.066406 67.566406 205.460938 C 67.566406 205.460938 67.503906 205.527344 67.503906 205.527344 C 57.847656 205.527344 48.191406 205.527344 38.472656 205.527344 C 38.472656 203.066406 38.472656 200.730469 38.472656 198.203125 C 43.203125 198.203125 48 198.203125 52.859375 198.203125 C 52.859375 193.34375 52.859375 188.550781 52.859375 183.753906 C 50.523438 183.753906 48.191406 183.753906 45.792969 183.753906 C 45.792969 186.085938 45.792969 188.484375 45.792969 190.882812 C 43.332031 190.882812 40.933594 190.882812 38.472656 190.882812 C 38.472656 188.484375 38.472656 186.152344 38.472656 183.625 C 40.804688 183.625 43.136719 183.625 45.601562 183.625 C 45.601562 181.164062 45.601562 178.894531 45.601562 176.433594 C 43.269531 176.433594 40.871094 176.433594 38.472656 176.433594 C 38.472656 171.507812 38.472656 166.648438 38.472656 161.722656 C 40.871094 161.722656 43.203125 161.722656 45.601562 161.722656 C 45.601562 159.324219 45.601562 156.992188 45.601562 154.59375 C 43.203125 154.59375 40.871094 154.59375 38.472656 154.59375 C 38.472656 152.132812 38.472656 149.734375 38.472656 147.207031 C 40.871094 147.207031 43.203125 147.207031 45.730469 147.207031 C 45.730469 149.539062 45.730469 151.9375 45.730469 154.335938 C 48.191406 154.335938 50.460938 154.335938 52.921875 154.335938 C 52.921875 149.539062 52.921875 144.746094 52.921875 139.949219 C 55.449219 139.949219 57.78125 139.949219 60.246094 139.949219 C 60.246094 142.347656 60.246094 144.679688 60.246094 147.140625 C 65.105469 147.140625 69.902344 147.140625 74.761719 147.140625 C 74.761719 149.667969 74.761719 152.066406 74.761719 154.59375 C 67.503906 154.59375 60.375 154.59375 53.050781 154.59375 C 53.050781 159.453125 53.050781 164.25 53.050781 169.109375 C 50.589844 169.109375 48.257812 169.109375 45.859375 169.109375 C 45.859375 171.507812 45.859375 173.839844 45.859375 176.238281 C 50.589844 176.238281 55.386719 176.238281 60.246094 176.238281 C 60.246094 171.441406 60.246094 166.648438 60.246094 161.851562 C 65.171875 161.851562 69.964844 161.851562 74.890625 161.851562 C 74.890625 169.042969 74.890625 176.238281 74.890625 183.558594 C 82.210938 183.558594 89.40625 183.558594 96.726562 183.558594 C 96.726562 186.023438 96.726562 188.355469 96.726562 190.816406 C 106.449219 190.816406 116.101562 190.816406 125.824219 190.816406 C 125.824219 198.140625 125.824219 205.332031 125.824219 212.65625 C 128.285156 212.65625 130.617188 212.65625 133.082031 212.65625 C 133.082031 215.183594 133.082031 217.515625 133.082031 219.976562 C 130.617188 219.976562 128.21875 219.976562 125.757812 219.976562 C 125.757812 217.644531 125.757812 215.246094 125.757812 212.785156 C 123.296875 212.785156 120.964844 212.785156 118.5 212.785156 C 118.5 210.320312 118.5 207.988281 118.5 205.589844 C 116.101562 205.589844 113.769531 205.589844 111.371094 205.589844 C 111.371094 212.785156 111.371094 219.914062 111.371094 227.234375 C 113.769531 227.234375 116.101562 227.234375 118.5 227.234375 C 118.5 229.761719 118.5 232.09375 118.5 234.621094 C 116.101562 234.621094 113.769531 234.621094 111.371094 234.621094 C 111.371094 237.085938 111.371094 239.417969 111.371094 241.816406 C 116.167969 241.816406 120.898438 241.816406 125.824219 241.816406 C 125.824219 244.277344 125.824219 246.609375 125.824219 249.074219 C 128.21875 249.074219 130.554688 249.074219 132.886719 249.074219 C 132.886719 244.277344 132.886719 239.546875 132.886719 234.6875 C 130.488281 234.6875 128.15625 234.6875 125.757812 234.6875 C 125.757812 232.222656 125.757812 229.828125 125.757812 227.363281 C 128.15625 227.363281 130.554688 227.363281 133.082031 227.363281 C 133.082031 229.761719 133.082031 232.09375 133.082031 234.492188 C 135.476562 234.492188 137.746094 234.492188 140.207031 234.492188 C 140.207031 232.160156 140.207031 229.761719 140.207031 227.300781 C 145.070312 227.300781 149.863281 227.300781 154.722656 227.300781 C 154.722656 222.441406 154.722656 217.644531 154.722656 212.785156 C 159.714844 212.785156 164.507812 212.785156 169.367188 212.785156 C 169.367188 215.183594 169.367188 217.578125 169.367188 220.042969 C 167.035156 220.042969 164.703125 220.042969 162.242188 220.042969 C 162.242188 224.902344 162.242188 229.699219 162.242188 234.621094 C 159.777344 234.621094 157.378906 234.621094 154.984375 234.621094 C 154.984375 239.480469 154.984375 244.210938 154.984375 249.007812 C 157.316406 249.007812 159.648438 249.007812 162.046875 249.007812 C 162.046875 246.675781 162.046875 244.277344 162.046875 241.878906 C 164.507812 241.878906 166.90625 241.878906 169.433594 241.878906 C 169.433594 244.277344 169.433594 246.609375 169.433594 249.007812 C 171.832031 249.007812 174.164062 249.007812 176.5625 249.007812 C 176.5625 244.277344 176.5625 239.480469 176.5625 234.621094 C 174.164062 234.621094 171.832031 234.621094 169.433594 234.621094 C 169.433594 232.160156 169.433594 229.761719 169.433594 227.300781 C 171.765625 227.300781 174.164062 227.300781 176.625 227.300781 C 176.625 224.835938 176.625 222.503906 176.625 220.042969 C 179.089844 220.042969 181.421875 220.042969 183.820312 220.042969 C 183.820312 217.578125 183.820312 215.246094 183.820312 212.785156 C 181.421875 212.785156 179.089844 212.785156 176.691406 212.785156 C 176.691406 210.320312 176.691406 207.925781 176.691406 205.460938 C 179.089844 205.460938 181.421875 205.460938 183.820312 205.460938 C 183.820312 203 183.820312 200.667969 183.820312 198.269531 C 181.421875 198.269531 179.089844 198.269531 176.625 198.269531 C 176.625 195.808594 176.625 193.472656 176.625 191.011719 C 174.164062 191.011719 171.894531 191.011719 169.433594 191.011719 C 169.433594 193.410156 169.433594 195.742188 169.433594 198.140625 C 164.507812 198.140625 159.648438 198.140625 154.789062 198.140625 C 154.789062 195.742188 154.789062 193.410156 154.789062 191.011719 C 152.390625 191.011719 150.121094 191.011719 147.660156 191.011719 C 147.660156 193.410156 147.660156 195.742188 147.660156 198.203125 C 145.199219 198.203125 142.867188 198.203125 140.402344 198.203125 C 140.402344 200.667969 140.402344 203 140.402344 205.460938 C 137.875 205.460938 135.476562 205.460938 132.949219 205.460938 C 132.949219 198.269531 132.949219 191.078125 132.949219 183.753906 C 130.488281 183.753906 128.089844 183.753906 125.691406 183.753906 C 125.691406 181.292969 125.691406 178.960938 125.691406 176.496094 C 115.972656 176.496094 106.382812 176.496094 96.664062 176.496094 C 96.664062 174.035156 96.664062 171.636719 96.664062 169.238281 C 94.265625 169.238281 91.933594 169.238281 89.535156 169.238281 C 89.535156 171.570312 89.535156 173.96875 89.535156 176.367188 C 87.007812 176.367188 84.675781 176.367188 82.210938 176.367188 C 82.210938 173.96875 82.210938 171.570312 82.210938 169.109375 C 84.546875 169.109375 86.878906 169.109375 89.339844 169.109375 C 89.339844 166.710938 89.339844 164.378906 89.339844 161.980469 C 87.007812 161.980469 84.675781 161.980469 82.210938 161.980469 C 82.210938 159.519531 82.210938 157.121094 82.210938 154.59375 C 84.546875 154.59375 86.941406 154.59375 89.46875 154.59375 C 89.46875 156.992188 89.46875 159.324219 89.46875 161.722656 C 94.332031 161.722656 99.058594 161.722656 103.921875 161.722656 C 103.921875 159.324219 103.921875 156.992188 103.921875 154.59375 C 106.382812 154.59375 108.78125 154.59375 111.308594 154.59375 C 111.308594 156.992188 111.308594 159.324219 111.308594 161.722656 C 113.707031 161.722656 116.039062 161.722656 118.4375 161.722656 C 118.4375 154.53125 118.4375 147.335938 118.4375 140.015625 C 120.898438 140.015625 123.296875 140.015625 125.757812 140.015625 C 125.757812 137.550781 125.757812 135.152344 125.757812 132.757812 C 128.285156 132.757812 130.683594 132.757812 133.144531 132.757812 C 133.144531 135.21875 133.144531 137.617188 133.144531 140.144531 C 130.746094 140.144531 128.414062 140.144531 126.015625 140.144531 C 126.015625 145.003906 126.015625 149.734375 126.015625 154.464844 C 128.351562 154.464844 130.617188 154.464844 133.015625 154.464844 C 133.015625 152.132812 133.015625 149.734375 133.015625 147.335938 C 135.542969 147.335938 137.941406 147.335938 140.46875 147.335938 C 140.46875 149.667969 140.46875 152.003906 140.46875 154.464844 C 142.929688 154.464844 145.261719 154.464844 147.726562 154.464844 C 147.726562 156.925781 147.726562 159.261719 147.726562 161.65625 C 152.519531 161.65625 157.25 161.65625 162.046875 161.65625 C 162.046875 159.390625 162.046875 157.054688 162.046875 154.660156 C 159.714844 154.660156 157.316406 154.660156 154.851562 154.660156 C 154.851562 152.195312 154.851562 149.863281 154.851562 147.402344 C 152.390625 147.402344 150.058594 147.402344 147.59375 147.402344 C 147.59375 144.9375 147.59375 142.605469 147.59375 140.144531 C 145.132812 140.144531 142.800781 140.144531 140.402344 140.144531 C 140.402344 137.617188 140.402344 135.21875 140.402344 132.691406 C 142.867188 132.691406 145.261719 132.691406 147.726562 132.691406 C 147.726562 135.089844 147.726562 137.421875 147.726562 139.882812 C 150.1875 139.882812 152.519531 139.882812 154.984375 139.882812 C 154.984375 142.347656 154.984375 144.679688 154.984375 147.140625 C 157.445312 147.140625 159.777344 147.140625 162.242188 147.140625 C 162.242188 149.605469 162.242188 151.9375 162.242188 154.464844 C 164.703125 154.464844 167.101562 154.464844 169.5 154.464844 C 169.5 156.992188 169.5 159.324219 169.5 161.851562 C 167.101562 161.851562 164.769531 161.851562 162.304688 161.851562 C 162.304688 164.3125 162.304688 166.648438 162.304688 169.042969 C 157.378906 169.042969 152.519531 169.042969 147.59375 169.042969 C 147.59375 166.710938 147.59375 164.3125 147.59375 161.917969 C 145.199219 161.917969 142.929688 161.917969 140.46875 161.917969 C 140.46875 166.710938 140.46875 171.507812 140.46875 176.367188 C 138.003906 176.367188 135.609375 176.367188 133.210938 176.367188 C 133.210938 178.765625 133.210938 181.097656 133.210938 183.496094 C 135.609375 183.496094 137.941406 183.496094 140.402344 183.496094 C 140.402344 185.957031 140.402344 188.355469 140.402344 190.753906 C 142.800781 190.753906 145.132812 190.753906 147.53125 190.753906 C 147.53125 188.355469 147.53125 186.023438 147.53125 183.558594 C 149.992188 183.558594 152.324219 183.558594 154.789062 183.558594 C 154.789062 181.097656 154.789062 178.765625 154.789062 176.367188 C 157.316406 176.367188 159.714844 176.367188 162.175781 176.367188 C 162.175781 178.765625 162.175781 181.097656 162.175781 183.625 C 159.84375 183.625 157.445312 183.625 155.046875 183.625 C 155.046875 186.085938 155.046875 188.417969 155.046875 190.816406 C 159.777344 190.816406 164.507812 190.816406 169.367188 190.816406 C 169.367188 188.417969 169.367188 186.085938 169.367188 183.625 C 171.832031 183.625 174.164062 183.625 176.753906 183.625 C 176.691406 181.484375 176.691406 179.089844 176.753906 176.753906 C 179.089844 176.691406 181.421875 176.691406 183.820312 176.691406 C 183.820312 174.097656 183.820312 171.765625 183.820312 169.433594 C 181.421875 169.433594 179.152344 169.433594 176.753906 169.433594 C 176.753906 171.960938 176.753906 174.359375 176.753906 176.753906 Z M 234.816406 227.496094 C 237.214844 227.496094 239.613281 227.496094 242.140625 227.496094 C 242.140625 225.03125 242.140625 222.699219 242.140625 220.238281 C 244.601562 220.238281 246.933594 220.238281 249.332031 220.238281 C 249.332031 217.773438 249.332031 215.441406 249.332031 213.109375 C 244.535156 213.109375 239.804688 213.109375 234.945312 213.109375 C 234.945312 213.5625 234.945312 213.949219 234.945312 214.339844 C 234.882812 218.746094 234.816406 223.152344 234.816406 227.496094 C 232.484375 227.558594 230.085938 227.558594 227.6875 227.558594 C 227.6875 230.085938 227.6875 232.417969 227.6875 234.75 C 230.085938 234.75 232.417969 234.75 234.816406 234.75 C 234.816406 232.289062 234.816406 229.890625 234.816406 227.496094 Z M 198.527344 220.300781 C 198.527344 217.902344 198.527344 215.507812 198.527344 213.109375 C 196 213.109375 193.667969 213.109375 191.335938 213.109375 C 191.335938 215.507812 191.335938 217.839844 191.335938 220.238281 C 193.796875 220.300781 196.195312 220.300781 198.527344 220.300781 C 198.59375 225.097656 198.59375 229.890625 198.59375 234.816406 C 201.054688 234.816406 203.386719 234.816406 205.851562 234.816406 C 205.851562 239.675781 205.851562 244.472656 205.851562 249.265625 C 208.3125 249.265625 210.644531 249.265625 213.042969 249.265625 C 213.042969 244.40625 213.042969 239.675781 213.042969 234.816406 C 215.507812 234.816406 217.839844 234.816406 220.238281 234.816406 C 220.238281 232.355469 220.238281 230.019531 220.238281 227.625 C 215.375 227.625 210.644531 227.625 205.722656 227.625 C 205.722656 225.160156 205.722656 222.828125 205.722656 220.367188 C 203.195312 220.300781 200.863281 220.300781 198.527344 220.300781 Z M 184.011719 263.910156 C 191.269531 263.910156 198.527344 263.910156 205.785156 263.910156 C 205.785156 268.773438 205.785156 273.566406 205.785156 278.363281 C 208.183594 278.363281 210.515625 278.363281 212.980469 278.363281 C 212.980469 275.964844 212.980469 273.566406 212.980469 271.234375 C 217.902344 271.234375 222.699219 271.234375 227.496094 271.234375 C 227.496094 276.160156 227.496094 281.019531 227.496094 285.8125 C 225.03125 285.8125 222.699219 285.8125 220.171875 285.8125 C 220.171875 283.417969 220.171875 281.019531 220.171875 278.6875 C 217.710938 278.6875 215.375 278.6875 212.980469 278.6875 C 212.980469 281.148438 212.980469 283.480469 212.980469 285.8125 C 210.515625 285.8125 208.117188 285.8125 205.65625 285.8125 C 205.65625 283.351562 205.65625 281.019531 205.65625 278.621094 C 203.257812 278.621094 200.925781 278.621094 198.59375 278.621094 C 198.59375 283.417969 198.59375 288.148438 198.59375 293.007812 C 200.992188 293.007812 203.324219 293.007812 205.785156 293.007812 C 205.785156 295.46875 205.785156 297.800781 205.785156 300.199219 C 213.042969 300.199219 220.238281 300.199219 227.558594 300.199219 C 227.558594 297.800781 227.558594 295.40625 227.558594 292.941406 C 230.019531 292.941406 232.355469 292.941406 234.816406 292.941406 C 234.816406 290.480469 234.816406 288.082031 234.816406 285.621094 C 237.277344 285.621094 239.675781 285.621094 242.007812 285.621094 C 242.007812 283.222656 242.007812 280.890625 242.007812 278.492188 C 239.613281 278.492188 237.277344 278.492188 234.882812 278.492188 C 234.882812 275.964844 234.882812 273.566406 234.882812 271.039062 C 237.277344 271.039062 239.613281 271.039062 242.007812 271.039062 C 242.007812 268.640625 242.007812 266.375 242.007812 263.910156 C 237.148438 263.910156 232.417969 263.910156 227.496094 263.910156 C 227.496094 261.449219 227.496094 259.117188 227.496094 256.71875 C 225.097656 256.71875 222.765625 256.71875 220.300781 256.71875 C 220.300781 259.117188 220.300781 261.449219 220.300781 263.847656 C 217.839844 263.847656 215.441406 263.847656 212.914062 263.847656 C 212.914062 261.449219 212.914062 259.050781 212.914062 256.589844 C 210.453125 256.589844 208.117188 256.589844 205.65625 256.589844 C 205.65625 254.128906 205.65625 251.792969 205.65625 249.398438 C 203.195312 249.398438 200.925781 249.398438 198.464844 249.398438 C 198.464844 251.792969 198.464844 254.125 198.464844 256.589844 C 193.605469 256.589844 188.808594 256.589844 183.949219 256.589844 C 184.011719 259.179688 184.011719 261.449219 184.011719 263.910156 Z M 293.070312 205.851562 C 293.070312 208.25 293.070312 210.644531 293.070312 212.980469 C 290.542969 212.980469 288.148438 212.980469 285.621094 212.980469 C 285.621094 210.582031 285.621094 208.183594 285.621094 205.785156 C 280.695312 205.785156 275.964844 205.785156 271.105469 205.785156 C 271.105469 200.925781 271.105469 196.132812 271.105469 191.335938 C 268.707031 191.335938 266.375 191.335938 263.976562 191.335938 C 263.976562 193.734375 263.976562 196.132812 263.976562 198.59375 C 261.515625 198.59375 259.179688 198.59375 256.71875 198.59375 C 256.71875 201.054688 256.71875 203.386719 256.71875 205.851562 C 254.257812 205.851562 251.921875 205.851562 249.527344 205.851562 C 249.527344 208.3125 249.527344 210.582031 249.527344 213.042969 C 251.921875 213.042969 254.320312 213.042969 256.652344 213.042969 C 256.652344 215.570312 256.652344 217.902344 256.652344 220.367188 C 254.257812 220.367188 251.921875 220.367188 249.527344 220.367188 C 249.527344 222.828125 249.527344 225.160156 249.527344 227.558594 C 251.921875 227.558594 254.257812 227.558594 256.785156 227.558594 C 256.785156 230.019531 256.785156 232.355469 256.785156 234.75 C 261.644531 234.75 266.375 234.75 271.039062 234.75 C 271.039062 232.355469 271.039062 230.019531 271.039062 227.625 C 268.640625 227.625 266.308594 227.625 263.910156 227.625 C 263.910156 225.160156 263.910156 222.765625 263.910156 220.367188 C 266.375 220.367188 268.773438 220.367188 271.300781 220.367188 C 271.300781 222.765625 271.300781 225.097656 271.300781 227.496094 C 273.695312 227.496094 275.964844 227.496094 278.425781 227.496094 C 278.425781 225.097656 278.425781 222.699219 278.425781 220.238281 C 290.609375 220.238281 302.664062 220.238281 314.714844 220.238281 C 314.714844 217.839844 314.714844 215.507812 314.714844 213.042969 C 312.316406 213.042969 309.984375 213.042969 307.523438 213.042969 C 307.523438 210.582031 307.523438 208.25 307.523438 205.851562 C 302.664062 205.851562 297.933594 205.851562 293.070312 205.851562 Z M 256.785156 111.179688 C 256.785156 113.640625 256.785156 116.039062 256.785156 118.371094 C 261.644531 118.371094 266.375 118.371094 271.105469 118.371094 C 271.105469 115.972656 271.105469 113.707031 271.105469 111.242188 C 268.707031 111.242188 266.308594 111.242188 263.976562 111.242188 C 263.976562 108.714844 263.976562 106.316406 263.976562 103.855469 C 266.375 103.855469 268.707031 103.855469 271.105469 103.855469 C 271.105469 94.199219 271.105469 84.609375 271.105469 74.953125 C 266.308594 74.953125 261.578125 74.953125 256.847656 74.953125 C 256.847656 77.351562 256.847656 79.683594 256.847656 82.082031 C 259.246094 82.082031 261.578125 82.082031 263.976562 82.082031 C 263.976562 84.546875 263.976562 86.941406 263.976562 89.339844 C 261.515625 89.339844 259.117188 89.339844 256.652344 89.339844 C 256.652344 86.941406 256.652344 84.609375 256.652344 82.210938 C 254.257812 82.210938 251.921875 82.210938 249.460938 82.210938 C 249.460938 84.609375 249.460938 86.941406 249.460938 89.339844 C 247 89.339844 244.601562 89.339844 242.074219 89.339844 C 242.074219 86.941406 242.074219 84.546875 242.074219 82.210938 C 239.613281 82.210938 237.277344 82.210938 234.882812 82.210938 C 234.882812 89.46875 234.882812 96.664062 234.882812 103.984375 C 227.558594 103.984375 220.367188 103.984375 213.171875 103.984375 C 213.171875 106.449219 213.171875 108.714844 213.171875 111.046875 C 222.828125 111.046875 232.417969 111.046875 242.140625 111.046875 C 242.140625 108.652344 242.140625 106.253906 242.140625 103.789062 C 244.601562 103.789062 246.933594 103.789062 249.398438 103.789062 C 249.398438 101.328125 249.398438 98.996094 249.398438 96.597656 C 251.859375 96.597656 254.257812 96.597656 256.71875 96.597656 C 256.71875 99.0625 256.71875 101.457031 256.71875 103.921875 C 254.320312 103.921875 251.988281 103.921875 249.589844 103.921875 C 249.589844 106.382812 249.589844 108.652344 249.589844 111.046875 C 251.921875 111.179688 254.257812 111.179688 256.785156 111.179688 Z M 242.007812 133.082031 C 237.148438 133.082031 232.355469 133.082031 227.496094 133.082031 C 227.496094 128.21875 227.496094 123.425781 227.496094 118.628906 C 222.632812 118.628906 217.902344 118.628906 213.109375 118.628906 C 213.109375 121.027344 213.109375 123.296875 213.109375 125.695312 C 215.570312 125.695312 217.902344 125.695312 220.238281 125.695312 C 220.238281 130.617188 220.238281 135.476562 220.238281 140.402344 C 215.375 140.402344 210.582031 140.402344 205.851562 140.402344 C 205.851562 147.660156 205.851562 154.789062 205.851562 161.917969 C 208.25 161.917969 210.582031 161.917969 213.042969 161.917969 C 213.042969 159.519531 213.042969 157.1875 213.042969 154.722656 C 217.902344 154.722656 222.699219 154.722656 227.558594 154.722656 C 227.558594 149.800781 227.558594 145.070312 227.558594 140.207031 C 232.417969 140.207031 237.214844 140.207031 242.007812 140.207031 C 242.007812 137.8125 242.007812 135.542969 242.007812 133.082031 Z M 278.492188 162.242188 C 278.492188 169.5625 278.492188 176.753906 278.492188 184.011719 C 276.03125 184.011719 273.695312 184.011719 271.363281 184.011719 C 271.363281 186.410156 271.363281 188.742188 271.363281 191.207031 C 276.222656 191.207031 281.019531 191.207031 285.878906 191.207031 C 285.878906 196.066406 285.878906 200.863281 285.878906 205.65625 C 288.277344 205.65625 290.542969 205.65625 293.007812 205.65625 C 293.007812 200.796875 293.007812 196.066406 293.007812 191.140625 C 300.328125 191.140625 307.523438 191.140625 314.714844 191.140625 C 314.714844 188.679688 314.714844 186.410156 314.714844 183.949219 C 309.855469 183.949219 305.125 183.949219 300.265625 183.949219 C 300.265625 179.089844 300.265625 174.292969 300.265625 169.5 C 297.867188 169.5 295.535156 169.5 293.136719 169.5 C 293.136719 174.359375 293.136719 179.152344 293.136719 183.882812 C 290.609375 183.882812 288.210938 183.882812 285.683594 183.882812 C 285.683594 176.625 285.683594 169.433594 285.683594 162.175781 C 283.222656 162.242188 280.953125 162.242188 278.492188 162.242188 Z M 256.71875 154.789062 C 256.71875 157.25 256.71875 159.582031 256.71875 161.980469 C 259.117188 161.980469 261.449219 161.980469 263.847656 161.980469 C 263.847656 159.582031 263.847656 157.1875 263.847656 154.851562 C 266.375 154.851562 268.773438 154.851562 271.300781 154.851562 C 271.300781 157.25 271.300781 159.582031 271.300781 161.980469 C 273.695312 161.980469 276.03125 161.980469 278.363281 161.980469 C 278.363281 159.582031 278.363281 157.25 278.363281 154.789062 C 280.824219 154.789062 283.15625 154.789062 285.621094 154.789062 C 285.621094 152.390625 285.621094 150.058594 285.621094 147.660156 C 280.761719 147.660156 275.964844 147.660156 271.105469 147.660156 C 271.105469 145.199219 271.105469 142.867188 271.105469 140.53125 C 266.308594 140.53125 261.515625 140.53125 256.71875 140.53125 C 256.71875 142.929688 256.71875 145.261719 256.71875 147.726562 C 254.257812 147.726562 251.921875 147.726562 249.589844 147.726562 C 249.589844 150.121094 249.589844 152.457031 249.589844 154.789062 C 251.921875 154.789062 254.257812 154.789062 256.71875 154.789062 Z M 300.136719 300.199219 C 300.136719 292.941406 300.136719 285.8125 300.136719 278.6875 C 292.878906 278.6875 285.75 278.6875 278.554688 278.6875 C 278.554688 285.878906 278.554688 293.007812 278.554688 300.199219 C 285.8125 300.199219 292.941406 300.199219 300.136719 300.199219 Z M 205.851562 212.914062 C 215.570312 212.914062 225.160156 212.914062 234.75 212.914062 C 234.75 210.515625 234.75 208.25 234.75 205.785156 C 229.890625 205.785156 225.160156 205.785156 220.238281 205.785156 C 220.238281 200.863281 220.238281 196.132812 220.238281 191.335938 C 217.839844 191.335938 215.507812 191.335938 213.042969 191.335938 C 213.042969 193.734375 213.042969 196.132812 213.042969 198.59375 C 210.582031 198.59375 208.183594 198.59375 205.851562 198.59375 C 205.851562 203.453125 205.851562 208.117188 205.851562 212.914062 Z M 234.945312 183.820312 C 247.0625 183.820312 259.050781 183.820312 271.039062 183.820312 C 271.039062 178.960938 271.039062 174.230469 271.039062 169.5625 C 268.640625 169.5625 266.375 169.5625 263.976562 169.5625 C 263.976562 171.960938 263.976562 174.292969 263.976562 176.691406 C 259.050781 176.691406 254.257812 176.691406 249.332031 176.691406 C 249.332031 174.292969 249.332031 171.894531 249.332031 169.5625 C 246.933594 169.5625 244.601562 169.5625 242.203125 169.5625 C 242.203125 171.960938 242.203125 174.359375 242.203125 176.753906 C 239.742188 176.753906 237.410156 176.753906 235.011719 176.753906 C 234.945312 179.152344 234.945312 181.421875 234.945312 183.820312 Z M 271.300781 249.265625 C 278.554688 249.265625 285.683594 249.265625 292.8125 249.265625 C 292.8125 244.472656 292.8125 239.742188 292.8125 234.816406 C 290.414062 234.816406 288.082031 234.816406 285.621094 234.816406 C 285.621094 232.355469 285.621094 230.019531 285.621094 227.625 C 283.222656 227.625 280.890625 227.625 278.492188 227.625 C 278.492188 232.484375 278.492188 237.214844 278.492188 242.140625 C 276.03125 242.140625 273.695312 242.140625 271.300781 242.140625 C 271.300781 244.601562 271.300781 246.933594 271.300781 249.265625 Z M 278.363281 256.785156 C 268.707031 256.785156 259.117188 256.785156 249.527344 256.785156 C 249.527344 261.578125 249.527344 266.308594 249.527344 271.039062 C 251.921875 271.039062 254.257812 271.039062 256.652344 271.039062 C 256.652344 268.578125 256.652344 266.246094 256.652344 263.910156 C 259.117188 263.910156 261.515625 263.910156 264.042969 263.910156 C 264.042969 266.308594 264.042969 268.707031 264.042969 271.039062 C 266.4375 271.039062 268.773438 271.039062 271.167969 271.039062 C 271.167969 268.640625 271.167969 266.246094 271.167969 263.78125 C 273.632812 263.78125 276.03125 263.78125 278.363281 263.78125 C 278.363281 261.449219 278.363281 259.117188 278.363281 256.785156 Z M 249.332031 242.140625 C 246.871094 242.140625 244.535156 242.140625 242.074219 242.140625 C 242.074219 239.675781 242.074219 237.34375 242.074219 234.945312 C 239.675781 234.945312 237.34375 234.945312 234.882812 234.945312 C 234.882812 237.34375 234.882812 239.675781 234.882812 242.140625 C 232.417969 242.140625 230.019531 242.140625 227.6875 242.140625 C 227.6875 244.601562 227.6875 246.871094 227.6875 249.332031 C 230.085938 249.332031 232.484375 249.332031 234.945312 249.332031 C 234.945312 251.792969 234.945312 254.128906 234.945312 256.523438 C 237.34375 256.523438 239.675781 256.523438 242.140625 256.523438 C 242.140625 254.128906 242.140625 251.730469 242.140625 249.265625 C 244.601562 249.265625 247 249.265625 249.332031 249.265625 C 249.332031 246.871094 249.332031 244.601562 249.332031 242.140625 Z M 227.625 169.367188 C 227.625 171.832031 227.625 174.164062 227.625 176.5625 C 230.085938 176.5625 232.417969 176.5625 234.816406 176.5625 C 234.816406 174.164062 234.816406 171.832031 234.816406 169.304688 C 237.277344 169.304688 239.613281 169.304688 242.007812 169.304688 C 242.007812 166.839844 242.007812 164.574219 242.007812 162.304688 C 232.355469 162.304688 222.699219 162.304688 213.171875 162.304688 C 213.171875 164.703125 213.171875 166.972656 213.171875 169.367188 C 217.96875 169.367188 222.765625 169.367188 227.625 169.367188 Z M 307.714844 118.4375 C 310.113281 118.4375 312.511719 118.4375 314.972656 118.4375 C 314.972656 120.898438 314.972656 123.230469 314.972656 125.628906 C 319.769531 125.628906 324.566406 125.628906 329.296875 125.628906 C 329.296875 123.296875 329.296875 120.964844 329.296875 118.566406 C 326.898438 118.566406 324.566406 118.566406 322.039062 118.566406 C 322.039062 116.101562 322.039062 113.769531 322.039062 111.242188 C 319.574219 111.242188 317.242188 111.242188 314.78125 111.242188 C 314.78125 108.78125 314.78125 106.449219 314.78125 104.050781 C 312.382812 104.050781 310.050781 104.050781 307.714844 104.050781 C 307.714844 108.84375 307.714844 113.574219 307.714844 118.4375 Z M 307.652344 307.652344 C 305.125 307.652344 302.792969 307.652344 300.457031 307.652344 C 300.457031 310.050781 300.457031 312.382812 300.457031 314.78125 C 302.855469 314.78125 305.253906 314.78125 307.714844 314.78125 C 307.714844 317.242188 307.714844 319.574219 307.714844 321.972656 C 310.113281 321.972656 312.382812 321.972656 314.84375 321.972656 C 314.84375 319.574219 314.84375 317.175781 314.84375 314.714844 C 317.308594 314.714844 319.640625 314.714844 322.039062 314.714844 C 322.039062 312.316406 322.039062 309.984375 322.039062 307.585938 C 319.640625 307.585938 317.308594 307.585938 314.84375 307.585938 C 314.84375 305.125 314.84375 302.792969 314.84375 300.394531 C 312.382812 300.394531 310.113281 300.394531 307.714844 300.394531 C 307.652344 302.792969 307.652344 305.125 307.652344 307.652344 Z M 118.4375 307.457031 C 118.4375 305.058594 118.4375 302.664062 118.4375 300.265625 C 120.898438 300.265625 123.230469 300.265625 125.628906 300.265625 C 125.628906 297.867188 125.628906 295.535156 125.628906 293.203125 C 118.4375 293.203125 111.242188 293.203125 104.113281 293.203125 C 104.113281 297.996094 104.113281 302.726562 104.113281 307.457031 C 108.84375 307.457031 113.574219 307.457031 118.4375 307.457031 Z M 307.457031 125.757812 C 304.996094 125.757812 302.664062 125.757812 300.199219 125.757812 C 300.199219 123.296875 300.199219 120.964844 300.199219 118.628906 C 297.800781 118.628906 295.46875 118.628906 293.136719 118.628906 C 293.136719 121.027344 293.136719 123.359375 293.136719 125.824219 C 290.675781 125.824219 288.339844 125.824219 285.945312 125.824219 C 285.945312 128.21875 285.945312 130.554688 285.945312 132.949219 C 288.339844 132.949219 290.738281 132.949219 293.203125 132.949219 C 293.203125 135.414062 293.203125 137.8125 293.203125 140.144531 C 295.597656 140.144531 297.867188 140.144531 300.328125 140.144531 C 300.328125 137.679688 300.328125 135.347656 300.328125 132.886719 C 302.792969 132.886719 305.125 132.886719 307.523438 132.886719 C 307.457031 130.554688 307.457031 128.285156 307.457031 125.757812 Z M 183.820312 285.8125 C 181.421875 285.8125 179.023438 285.8125 176.5625 285.8125 C 176.5625 280.953125 176.5625 276.160156 176.5625 271.363281 C 174.164062 271.363281 171.832031 271.363281 169.5 271.363281 C 169.5 278.621094 169.5 285.75 169.5 292.878906 C 174.292969 292.878906 179.023438 292.878906 183.820312 292.878906 C 183.820312 290.542969 183.820312 288.210938 183.820312 285.8125 Z M 307.714844 133.144531 C 307.714844 135.542969 307.714844 137.875 307.714844 140.273438 C 310.113281 140.273438 312.511719 140.273438 314.910156 140.273438 C 314.910156 145.132812 314.910156 149.929688 314.910156 154.722656 C 317.308594 154.722656 319.640625 154.722656 321.972656 154.722656 C 321.972656 147.53125 321.972656 140.339844 321.972656 133.144531 C 317.175781 133.144531 312.445312 133.144531 307.714844 133.144531 Z M 249.398438 132.886719 C 249.398438 130.421875 249.398438 128.089844 249.398438 125.628906 C 251.859375 125.628906 254.191406 125.628906 256.523438 125.628906 C 256.523438 123.230469 256.523438 120.898438 256.523438 118.628906 C 249.265625 118.628906 242.140625 118.628906 234.945312 118.628906 C 234.945312 121.027344 234.945312 123.296875 234.945312 125.695312 C 237.34375 125.695312 239.675781 125.695312 242.140625 125.695312 C 242.140625 128.15625 242.140625 130.488281 242.140625 132.886719 C 244.601562 132.886719 246.933594 132.886719 249.398438 132.886719 Z M 307.714844 271.300781 C 307.714844 278.554688 307.714844 285.683594 307.714844 292.878906 C 310.050781 292.878906 312.382812 292.878906 314.78125 292.878906 C 314.78125 290.480469 314.78125 288.082031 314.78125 285.621094 C 317.242188 285.621094 319.640625 285.621094 321.972656 285.621094 C 321.972656 283.222656 321.972656 280.890625 321.972656 278.492188 C 319.574219 278.492188 317.242188 278.492188 314.78125 278.492188 C 314.78125 276.03125 314.78125 273.695312 314.78125 271.300781 C 312.316406 271.300781 310.050781 271.300781 307.714844 271.300781 Z M 169.304688 264.105469 C 162.109375 264.105469 154.917969 264.105469 147.789062 264.105469 C 147.789062 266.503906 147.789062 268.773438 147.789062 271.167969 C 150.1875 271.167969 152.585938 271.167969 155.046875 271.167969 C 155.046875 273.632812 155.046875 275.964844 155.046875 278.363281 C 157.445312 278.363281 159.714844 278.363281 162.175781 278.363281 C 162.175781 275.964844 162.175781 273.566406 162.175781 271.105469 C 164.636719 271.105469 166.972656 271.105469 169.367188 271.105469 C 169.304688 268.707031 169.304688 266.4375 169.304688 264.105469 Z M 205.65625 191.335938 C 200.796875 191.335938 196.066406 191.335938 191.269531 191.335938 C 191.269531 196.132812 191.269531 200.863281 191.269531 205.65625 C 193.667969 205.65625 196 205.65625 198.464844 205.65625 C 198.464844 203.257812 198.464844 200.863281 198.464844 198.398438 C 200.925781 198.398438 203.257812 198.398438 205.65625 198.398438 C 205.65625 196 205.65625 193.667969 205.65625 191.335938 Z M 183.820312 60.246094 C 183.820312 55.449219 183.820312 50.65625 183.820312 45.859375 C 179.023438 45.859375 174.292969 45.859375 169.5625 45.859375 C 169.5625 48.257812 169.5625 50.589844 169.5625 52.988281 C 171.960938 52.988281 174.292969 52.988281 176.753906 52.988281 C 176.753906 55.449219 176.753906 57.78125 176.753906 60.179688 C 179.152344 60.246094 181.484375 60.246094 183.820312 60.246094 Z M 242.074219 293.203125 C 239.675781 293.203125 237.34375 293.203125 234.945312 293.203125 C 234.945312 297.996094 234.945312 302.726562 234.945312 307.457031 C 239.742188 307.457031 244.535156 307.457031 249.265625 307.457031 C 249.265625 305.058594 249.265625 302.792969 249.265625 300.394531 C 246.871094 300.394531 244.472656 300.394531 242.074219 300.394531 C 242.074219 297.867188 242.074219 295.535156 242.074219 293.203125 Z M 67.699219 271.039062 C 75.019531 271.039062 82.148438 271.039062 89.277344 271.039062 C 89.277344 268.640625 89.277344 266.375 89.277344 264.105469 C 82.019531 264.105469 74.890625 264.105469 67.699219 264.105469 C 67.699219 266.4375 67.699219 268.707031 67.699219 271.039062 Z M 147.464844 234.945312 C 145.070312 234.945312 142.800781 234.945312 140.46875 234.945312 C 140.46875 242.203125 140.46875 249.332031 140.46875 256.523438 C 142.867188 256.523438 145.132812 256.523438 147.464844 256.523438 C 147.464844 249.332031 147.464844 242.140625 147.464844 234.945312 Z M 176.753906 314.910156 C 176.753906 317.308594 176.753906 319.640625 176.753906 321.972656 C 181.550781 321.972656 186.28125 321.972656 191.078125 321.972656 C 191.078125 319.574219 191.078125 317.242188 191.078125 314.910156 C 186.28125 314.910156 181.617188 314.910156 176.753906 314.910156 Z M 198.335938 249.265625 C 198.335938 246.871094 198.335938 244.535156 198.335938 242.269531 C 193.472656 242.269531 188.742188 242.269531 184.011719 242.269531 C 184.011719 244.667969 184.011719 246.933594 184.011719 249.265625 C 188.875 249.265625 193.605469 249.265625 198.335938 249.265625 Z M 184.078125 60.441406 C 184.078125 65.234375 184.078125 69.964844 184.078125 74.761719 C 186.476562 74.761719 188.808594 74.761719 191.140625 74.761719 C 191.140625 69.964844 191.140625 65.171875 191.140625 60.441406 C 188.679688 60.441406 186.410156 60.441406 184.078125 60.441406 Z M 184.011719 307.457031 C 186.410156 307.457031 188.742188 307.457031 191.078125 307.457031 C 191.078125 302.664062 191.078125 297.933594 191.078125 293.203125 C 188.679688 293.203125 186.347656 293.203125 184.011719 293.203125 C 184.011719 297.933594 184.011719 302.664062 184.011719 307.457031 Z M 271.039062 52.921875 C 271.039062 50.460938 271.039062 48.191406 271.039062 45.859375 C 266.246094 45.859375 261.515625 45.859375 256.785156 45.859375 C 256.785156 48.257812 256.785156 50.527344 256.785156 52.921875 C 261.578125 52.921875 266.246094 52.921875 271.039062 52.921875 Z M 169.304688 314.972656 C 164.507812 314.972656 159.714844 314.972656 154.984375 314.972656 C 154.984375 317.371094 154.984375 319.640625 154.984375 321.972656 C 159.777344 321.972656 164.507812 321.972656 169.304688 321.972656 C 169.304688 319.640625 169.304688 317.371094 169.304688 314.972656 Z M 256.785156 67.503906 C 261.578125 67.503906 266.308594 67.503906 271.039062 67.503906 C 271.039062 65.105469 271.039062 62.773438 271.039062 60.441406 C 266.246094 60.441406 261.515625 60.441406 256.785156 60.441406 C 256.785156 62.835938 256.785156 65.105469 256.785156 67.503906 Z M 60.441406 256.523438 C 65.234375 256.523438 70.03125 256.523438 74.761719 256.523438 C 74.761719 254.128906 74.761719 251.859375 74.761719 249.527344 C 69.964844 249.527344 65.234375 249.527344 60.441406 249.527344 C 60.441406 251.921875 60.441406 254.191406 60.441406 256.523438 Z M 307.457031 249.265625 C 307.457031 244.40625 307.457031 239.742188 307.457031 234.945312 C 305.058594 234.945312 302.792969 234.945312 300.460938 234.945312 C 300.460938 239.804688 300.460938 244.535156 300.460938 249.265625 C 302.792969 249.265625 305.058594 249.265625 307.457031 249.265625 Z M 125.953125 264.042969 C 125.953125 266.4375 125.953125 268.773438 125.953125 271.039062 C 130.746094 271.039062 135.476562 271.039062 140.207031 271.039062 C 140.207031 268.707031 140.207031 266.375 140.207031 264.042969 C 135.414062 264.042969 130.683594 264.042969 125.953125 264.042969 Z M 285.621094 111.371094 C 283.222656 111.371094 280.890625 111.371094 278.621094 111.371094 C 278.621094 116.167969 278.621094 120.898438 278.621094 125.628906 C 280.953125 125.628906 283.285156 125.628906 285.621094 125.628906 C 285.621094 120.832031 285.621094 116.167969 285.621094 111.371094 Z M 176.820312 227.6875 C 176.820312 230.152344 176.820312 232.417969 176.820312 234.75 C 179.21875 234.75 181.484375 234.75 183.820312 234.75 C 183.820312 232.355469 183.820312 230.019531 183.820312 227.6875 C 181.484375 227.6875 179.152344 227.6875 176.820312 227.6875 Z M 227.625 198.335938 C 230.019531 198.335938 232.355469 198.335938 234.6875 198.335938 C 234.6875 195.9375 234.6875 193.605469 234.6875 191.335938 C 232.289062 191.335938 229.957031 191.335938 227.625 191.335938 C 227.625 193.734375 227.625 196 227.625 198.335938 Z M 82.210938 198.335938 C 84.675781 198.335938 86.941406 198.335938 89.277344 198.335938 C 89.277344 195.9375 89.277344 193.605469 89.277344 191.269531 C 86.878906 191.269531 84.609375 191.269531 82.210938 191.269531 C 82.210938 193.667969 82.210938 196 82.210938 198.335938 Z M 96.597656 249.265625 C 96.597656 246.871094 96.597656 244.601562 96.597656 242.269531 C 94.199219 242.269531 91.867188 242.269531 89.535156 242.269531 C 89.535156 244.667969 89.535156 246.933594 89.535156 249.265625 C 91.867188 249.265625 94.199219 249.265625 96.597656 249.265625 Z M 249.265625 60.441406 C 246.871094 60.441406 244.535156 60.441406 242.203125 60.441406 C 242.203125 62.835938 242.203125 65.171875 242.203125 67.503906 C 244.601562 67.503906 246.933594 67.503906 249.265625 67.503906 C 249.265625 65.105469 249.265625 62.835938 249.265625 60.441406 Z M 249.265625 234.75 C 249.265625 232.355469 249.265625 230.019531 249.265625 227.625 C 246.933594 227.625 244.601562 227.625 242.269531 227.625 C 242.269531 230.019531 242.269531 232.355469 242.269531 234.75 C 244.601562 234.75 246.871094 234.75 249.265625 234.75 Z M 60.246094 242.007812 C 60.246094 239.613281 60.246094 237.277344 60.246094 234.945312 C 57.847656 234.945312 55.515625 234.945312 53.183594 234.945312 C 53.183594 237.34375 53.183594 239.675781 53.183594 242.007812 C 55.578125 242.007812 57.847656 242.007812 60.246094 242.007812 Z M 242.203125 82.019531 C 244.601562 82.019531 246.933594 82.019531 249.203125 82.019531 C 249.203125 79.621094 249.203125 77.289062 249.203125 74.953125 C 246.804688 74.953125 244.535156 74.953125 242.203125 74.953125 C 242.203125 77.351562 242.203125 79.683594 242.203125 82.019531 Z M 220.367188 234.945312 C 220.367188 237.34375 220.367188 239.675781 220.367188 242.007812 C 222.765625 242.007812 225.097656 242.007812 227.429688 242.007812 C 227.429688 239.613281 227.429688 237.34375 227.429688 234.945312 C 225.097656 234.945312 222.765625 234.945312 220.367188 234.945312 Z M 212.914062 191.140625 C 212.914062 188.742188 212.914062 186.410156 212.914062 184.078125 C 210.515625 184.078125 208.183594 184.078125 205.851562 184.078125 C 205.851562 186.476562 205.851562 188.808594 205.851562 191.140625 C 208.25 191.140625 210.582031 191.140625 212.914062 191.140625 Z M 242.203125 52.921875 C 244.601562 52.921875 246.933594 52.921875 249.265625 52.921875 C 249.265625 50.527344 249.265625 48.191406 249.265625 45.859375 C 246.933594 45.859375 244.601562 45.859375 242.203125 45.859375 C 242.203125 48.191406 242.203125 50.527344 242.203125 52.921875 Z M 212.914062 176.5625 C 212.914062 174.164062 212.914062 171.832031 212.914062 169.5625 C 210.515625 169.5625 208.183594 169.5625 205.851562 169.5625 C 205.851562 171.960938 205.851562 174.230469 205.851562 176.5625 C 208.25 176.5625 210.515625 176.5625 212.914062 176.5625 Z M 220.367188 183.820312 C 222.765625 183.820312 225.097656 183.820312 227.429688 183.820312 C 227.429688 181.421875 227.429688 179.089844 227.429688 176.820312 C 225.03125 176.820312 222.699219 176.820312 220.367188 176.820312 C 220.367188 179.152344 220.367188 181.421875 220.367188 183.820312 Z M 220.238281 256.589844 C 220.238281 254.191406 220.238281 251.921875 220.238281 249.527344 C 217.839844 249.527344 215.570312 249.527344 213.171875 249.527344 C 213.171875 251.921875 213.171875 254.257812 213.171875 256.589844 C 215.507812 256.589844 217.839844 256.589844 220.238281 256.589844 Z M 183.820312 256.523438 C 183.820312 254.128906 183.820312 251.859375 183.820312 249.527344 C 181.421875 249.527344 179.089844 249.527344 176.753906 249.527344 C 176.753906 251.921875 176.753906 254.191406 176.753906 256.523438 C 179.152344 256.523438 181.421875 256.523438 183.820312 256.523438 Z M 111.113281 234.75 C 111.113281 232.355469 111.113281 230.019531 111.113281 227.6875 C 108.714844 227.6875 106.449219 227.6875 104.050781 227.6875 C 104.050781 230.085938 104.050781 232.355469 104.050781 234.75 C 106.449219 234.75 108.714844 234.75 111.113281 234.75 Z M 242.203125 161.980469 C 244.601562 161.980469 246.933594 161.980469 249.265625 161.980469 C 249.265625 159.582031 249.265625 157.316406 249.265625 154.984375 C 246.871094 154.984375 244.535156 154.984375 242.203125 154.984375 C 242.203125 157.316406 242.203125 159.582031 242.203125 161.980469 Z M 191.335938 271.300781 C 191.335938 273.695312 191.335938 276.03125 191.335938 278.296875 C 193.734375 278.296875 196.066406 278.296875 198.398438 278.296875 C 198.398438 275.898438 198.398438 273.632812 198.398438 271.300781 C 196 271.300781 193.667969 271.300781 191.335938 271.300781 Z M 322.167969 278.296875 C 324.566406 278.296875 326.898438 278.296875 329.230469 278.296875 C 329.230469 275.898438 329.230469 273.632812 329.230469 271.363281 C 326.832031 271.363281 324.5 271.363281 322.167969 271.363281 C 322.167969 273.695312 322.167969 275.964844 322.167969 278.296875 Z M 89.339844 256.523438 C 89.339844 254.128906 89.339844 251.859375 89.339844 249.527344 C 86.941406 249.527344 84.609375 249.527344 82.277344 249.527344 C 82.277344 251.921875 82.277344 254.191406 82.277344 256.523438 C 84.609375 256.523438 86.878906 256.523438 89.339844 256.523438 Z M 263.78125 242.269531 C 261.449219 242.269531 259.117188 242.269531 256.71875 242.269531 C 256.71875 244.667969 256.71875 246.933594 256.71875 249.265625 C 259.117188 249.265625 261.382812 249.265625 263.78125 249.265625 C 263.78125 246.871094 263.78125 244.601562 263.78125 242.269531 Z M 314.910156 293.136719 C 314.910156 295.535156 314.910156 297.800781 314.910156 300.136719 C 317.308594 300.136719 319.574219 300.136719 321.972656 300.136719 C 321.972656 297.738281 321.972656 295.46875 321.972656 293.136719 C 319.640625 293.136719 317.308594 293.136719 314.910156 293.136719 Z M 256.523438 53.183594 C 254.128906 53.183594 251.859375 53.183594 249.527344 53.183594 C 249.527344 55.578125 249.527344 57.914062 249.527344 60.246094 C 251.921875 60.246094 254.191406 60.246094 256.523438 60.246094 C 256.523438 57.847656 256.523438 55.578125 256.523438 53.183594 Z M 205.65625 300.460938 C 203.195312 300.460938 200.863281 300.460938 198.59375 300.460938 C 198.59375 302.855469 198.59375 305.125 198.59375 307.394531 C 200.992188 307.394531 203.324219 307.394531 205.65625 307.394531 C 205.65625 305.058594 205.65625 302.792969 205.65625 300.460938 Z M 249.527344 242.007812 C 251.921875 242.007812 254.191406 242.007812 256.523438 242.007812 C 256.523438 239.613281 256.523438 237.277344 256.523438 234.945312 C 254.191406 234.945312 251.859375 234.945312 249.527344 234.945312 C 249.527344 237.277344 249.527344 239.613281 249.527344 242.007812 Z M 198.398438 314.714844 C 198.398438 312.316406 198.398438 309.984375 198.398438 307.714844 C 196 307.714844 193.667969 307.714844 191.335938 307.714844 C 191.335938 310.113281 191.335938 312.382812 191.335938 314.714844 C 193.734375 314.714844 196 314.714844 198.398438 314.714844 Z M 220.367188 314.714844 C 222.765625 314.714844 225.097656 314.714844 227.429688 314.714844 C 227.429688 312.316406 227.429688 310.050781 227.429688 307.714844 C 225.03125 307.714844 222.699219 307.714844 220.367188 307.714844 C 220.367188 310.050781 220.367188 312.316406 220.367188 314.714844 Z M 140.207031 82.277344 C 137.8125 82.277344 135.476562 82.277344 133.210938 82.277344 C 133.210938 84.675781 133.210938 87.007812 133.210938 89.339844 C 135.609375 89.339844 137.875 89.339844 140.207031 89.339844 C 140.207031 86.941406 140.207031 84.609375 140.207031 82.277344 Z M 249.460938 198.398438 C 251.859375 198.398438 254.191406 198.398438 256.460938 198.398438 C 256.460938 196 256.460938 193.667969 256.460938 191.335938 C 254.0625 191.335938 251.792969 191.335938 249.460938 191.335938 C 249.460938 193.667969 249.460938 196 249.460938 198.398438 Z M 293.136719 234.75 C 295.46875 234.75 297.800781 234.75 300.136719 234.75 C 300.136719 232.355469 300.136719 230.019531 300.136719 227.6875 C 297.800781 227.6875 295.46875 227.6875 293.136719 227.6875 C 293.136719 230.019531 293.136719 232.355469 293.136719 234.75 Z M 249.527344 67.699219 C 249.527344 70.09375 249.527344 72.429688 249.527344 74.761719 C 251.921875 74.761719 254.257812 74.761719 256.589844 74.761719 C 256.589844 72.363281 256.589844 70.09375 256.589844 67.699219 C 254.191406 67.699219 251.921875 67.699219 249.527344 67.699219 Z M 133.210938 60.375 C 133.210938 62.773438 133.210938 65.105469 133.210938 67.4375 C 135.609375 67.4375 137.875 67.4375 140.207031 67.4375 C 140.207031 65.039062 140.207031 62.707031 140.207031 60.375 C 137.8125 60.375 135.542969 60.375 133.210938 60.375 Z M 169.238281 256.589844 C 169.238281 254.191406 169.238281 251.859375 169.238281 249.527344 C 166.839844 249.527344 164.574219 249.527344 162.304688 249.527344 C 162.304688 251.921875 162.304688 254.257812 162.304688 256.589844 C 164.636719 256.589844 166.90625 256.589844 169.238281 256.589844 Z M 285.878906 161.980469 C 288.277344 161.980469 290.542969 161.980469 292.878906 161.980469 C 292.878906 159.648438 292.878906 157.316406 292.878906 154.984375 C 290.480469 154.984375 288.210938 154.984375 285.878906 154.984375 C 285.878906 157.378906 285.878906 159.648438 285.878906 161.980469 Z M 263.847656 271.363281 C 261.449219 271.363281 259.179688 271.363281 256.785156 271.363281 C 256.785156 273.695312 256.785156 276.03125 256.785156 278.363281 C 259.179688 278.363281 261.449219 278.363281 263.847656 278.363281 C 263.847656 275.964844 263.847656 273.695312 263.847656 271.363281 Z M 300.136719 154.722656 C 300.136719 152.328125 300.136719 149.992188 300.136719 147.726562 C 297.738281 147.726562 295.46875 147.726562 293.136719 147.726562 C 293.136719 150.058594 293.136719 152.390625 293.136719 154.722656 C 295.535156 154.722656 297.800781 154.722656 300.136719 154.722656 Z M 264.105469 278.621094 C 264.105469 281.019531 264.105469 283.285156 264.105469 285.621094 C 266.503906 285.621094 268.773438 285.621094 271.105469 285.621094 C 271.105469 283.285156 271.105469 280.953125 271.105469 278.621094 C 268.707031 278.621094 266.4375 278.621094 264.105469 278.621094 Z M 300.394531 140.46875 C 300.394531 142.867188 300.394531 145.132812 300.394531 147.464844 C 302.792969 147.464844 305.058594 147.464844 307.390625 147.464844 C 307.390625 145.070312 307.390625 142.800781 307.390625 140.46875 C 305.058594 140.46875 302.792969 140.46875 300.394531 140.46875 Z M 292.878906 147.464844 C 292.878906 145.070312 292.878906 142.734375 292.878906 140.46875 C 290.480469 140.46875 288.210938 140.46875 285.945312 140.46875 C 285.945312 142.867188 285.945312 145.132812 285.945312 147.464844 C 288.277344 147.464844 290.542969 147.464844 292.878906 147.464844 Z M 278.363281 125.886719 C 275.964844 125.886719 273.695312 125.886719 271.363281 125.886719 C 271.363281 128.21875 271.363281 130.554688 271.363281 132.820312 C 273.761719 132.820312 276.03125 132.820312 278.363281 132.820312 C 278.363281 130.488281 278.363281 128.21875 278.363281 125.886719 Z M 263.78125 132.886719 C 263.78125 130.554688 263.78125 128.21875 263.78125 125.953125 C 261.382812 125.953125 259.050781 125.953125 256.785156 125.953125 C 256.785156 128.285156 256.785156 130.554688 256.785156 132.886719 C 259.117188 132.886719 261.382812 132.886719 263.78125 132.886719 Z M 292.878906 314.714844 C 292.878906 312.316406 292.878906 309.984375 292.878906 307.714844 C 290.480469 307.714844 288.210938 307.714844 285.945312 307.714844 C 285.945312 310.113281 285.945312 312.382812 285.945312 314.714844 C 288.210938 314.714844 290.542969 314.714844 292.878906 314.714844 Z M 307.457031 154.984375 C 305.058594 154.984375 302.726562 154.984375 300.394531 154.984375 C 300.394531 157.316406 300.394531 159.648438 300.394531 161.980469 C 302.792969 161.980469 305.058594 161.980469 307.457031 161.980469 C 307.457031 159.582031 307.457031 157.316406 307.457031 154.984375 Z M 307.457031 154.984375 " fill-opacity="1" fill-rule="nonzero"/><path fill="#000000" d="M 53.050781 111.371094 C 50.589844 111.371094 48.257812 111.371094 45.859375 111.371094 C 45.859375 116.101562 45.859375 120.832031 45.859375 125.695312 C 48.191406 125.695312 50.589844 125.695312 52.988281 125.695312 C 52.988281 128.21875 52.988281 130.617188 52.988281 133.144531 C 50.65625 133.144531 48.320312 133.144531 45.859375 133.144531 C 45.859375 135.609375 45.859375 137.941406 45.859375 140.402344 C 43.332031 140.402344 40.933594 140.402344 38.472656 140.402344 C 38.472656 138.003906 38.472656 135.542969 38.472656 133.015625 C 40.804688 133.015625 43.203125 133.015625 45.601562 133.015625 C 45.601562 130.617188 45.601562 128.285156 45.601562 125.886719 C 43.203125 125.886719 40.871094 125.886719 38.472656 125.886719 C 38.472656 120.964844 38.472656 116.167969 38.472656 111.242188 C 40.804688 111.242188 43.136719 111.242188 45.601562 111.242188 C 45.601562 108.84375 45.601562 106.511719 45.601562 104.050781 C 43.203125 104.050781 40.871094 104.050781 38.472656 104.050781 C 38.472656 101.585938 38.472656 99.191406 38.472656 96.726562 C 40.871094 96.726562 43.269531 96.726562 45.730469 96.726562 C 45.730469 99.125 45.730469 101.457031 45.730469 103.855469 C 48.128906 103.855469 50.460938 103.855469 52.921875 103.855469 C 52.921875 101.523438 52.921875 99.125 52.921875 96.726562 C 65.105469 96.726562 77.15625 96.726562 89.277344 96.726562 C 89.277344 99.125 89.277344 101.523438 89.277344 104.050781 C 86.941406 104.050781 84.546875 104.050781 82.148438 104.050781 C 82.148438 106.449219 82.148438 108.78125 82.148438 111.179688 C 89.339844 111.179688 96.535156 111.179688 103.855469 111.179688 C 103.855469 116.101562 103.855469 120.898438 103.855469 125.886719 C 101.457031 125.886719 99.125 125.886719 96.664062 125.886719 C 96.664062 128.351562 96.664062 130.746094 96.664062 133.144531 C 91.738281 133.144531 86.941406 133.144531 82.082031 133.144531 C 82.082031 130.746094 82.082031 128.414062 82.082031 125.953125 C 79.621094 125.953125 77.289062 125.953125 74.824219 125.953125 C 74.824219 123.488281 74.824219 121.15625 74.824219 118.761719 C 72.363281 118.761719 70.09375 118.761719 67.699219 118.761719 C 67.699219 123.488281 67.699219 128.21875 67.699219 133.015625 C 70.09375 133.015625 72.429688 133.015625 74.824219 133.015625 C 74.824219 135.542969 74.824219 137.941406 74.824219 140.46875 C 72.429688 140.46875 70.09375 140.46875 67.566406 140.46875 C 67.566406 138.070312 67.566406 135.738281 67.566406 133.273438 C 65.105469 133.273438 62.773438 133.273438 60.308594 133.273438 C 60.308594 128.414062 60.308594 123.621094 60.308594 118.695312 C 57.847656 118.695312 55.515625 118.695312 53.050781 118.695312 C 53.050781 116.167969 53.050781 113.835938 53.050781 111.371094 Z M 82.277344 125.628906 C 87.136719 125.628906 91.867188 125.628906 96.597656 125.628906 C 96.597656 123.230469 96.597656 120.964844 96.597656 118.628906 C 91.804688 118.628906 87.074219 118.628906 82.277344 118.628906 C 82.277344 120.964844 82.277344 123.296875 82.277344 125.628906 Z M 53.117188 111.046875 C 55.578125 111.046875 57.847656 111.046875 60.179688 111.046875 C 60.179688 108.652344 60.179688 106.382812 60.179688 104.050781 C 57.78125 104.050781 55.449219 104.050781 53.117188 104.050781 C 53.117188 106.449219 53.117188 108.714844 53.117188 111.046875 Z M 53.117188 111.046875 " fill-opacity="1" fill-rule="nonzero"/><path fill="#000000" d="M 38.539062 285.75 C 55.449219 285.75 72.363281 285.75 89.339844 285.75 C 89.339844 302.726562 89.339844 319.640625 89.339844 336.617188 C 72.429688 336.617188 55.515625 336.617188 38.539062 336.617188 C 38.539062 319.640625 38.539062 302.726562 38.539062 285.75 Z M 82.019531 329.230469 C 82.019531 317.175781 82.019531 305.125 82.019531 293.136719 C 69.902344 293.136719 57.914062 293.136719 45.859375 293.136719 C 45.859375 305.1875 45.859375 317.175781 45.859375 329.230469 C 57.976562 329.230469 69.964844 329.230469 82.019531 329.230469 Z M 82.019531 329.230469 " fill-opacity="1" fill-rule="nonzero"/><path fill="#000000" d="M 285.75 89.339844 C 285.75 72.363281 285.75 55.515625 285.75 38.539062 C 302.726562 38.539062 319.640625 38.539062 336.617188 38.539062 C 336.617188 55.449219 336.617188 72.363281 336.617188 89.339844 C 319.640625 89.339844 302.726562 89.339844 285.75 89.339844 Z M 329.230469 82.082031 C 329.230469 69.964844 329.230469 57.914062 329.230469 45.859375 C 317.175781 45.859375 305.1875 45.859375 293.203125 45.859375 C 293.203125 57.976562 293.203125 69.964844 293.203125 82.082031 C 305.253906 82.082031 317.175781 82.082031 329.230469 82.082031 Z M 329.230469 82.082031 " fill-opacity="1" fill-rule="nonzero"/><path fill="#000000" d="M 38.539062 89.40625 C 38.539062 72.429688 38.539062 55.578125 38.539062 38.601562 C 55.449219 38.601562 72.363281 38.601562 89.40625 38.601562 C 89.40625 55.515625 89.40625 72.429688 89.40625 89.40625 C 72.429688 89.40625 55.578125 89.40625 38.539062 89.40625 Z M 45.925781 45.859375 C 45.925781 57.914062 45.925781 69.964844 45.925781 82.019531 C 58.042969 82.019531 70.03125 82.019531 82.019531 82.019531 C 82.019531 69.902344 82.019531 57.914062 82.019531 45.859375 C 69.964844 45.859375 57.976562 45.859375 45.925781 45.859375 Z M 45.925781 45.859375 " fill-opacity="1" fill-rule="nonzero"/><path fill="#000000" d="M 234.816406 329.425781 C 234.816406 331.820312 234.816406 334.21875 234.816406 336.617188 C 227.558594 336.617188 220.300781 336.617188 213.042969 336.617188 C 213.042969 334.21875 213.042969 331.820312 213.042969 329.425781 C 220.300781 329.425781 227.558594 329.425781 234.816406 329.425781 Z M 234.816406 329.425781 " fill-opacity="1" fill-rule="nonzero"/><path fill="#000000" d="M 111.242188 140.339844 C 111.242188 142.800781 111.242188 145.199219 111.242188 147.660156 C 106.382812 147.660156 101.585938 147.660156 96.726562 147.660156 C 96.726562 145.261719 96.726562 142.867188 96.726562 140.339844 C 101.523438 140.339844 106.316406 140.339844 111.242188 140.339844 Z M 111.242188 140.339844 " fill-opacity="1" fill-rule="nonzero"/><path fill="#000000" d="M 140.339844 213.042969 C 142.800781 213.042969 145.199219 213.042969 147.660156 213.042969 C 147.660156 215.441406 147.660156 217.839844 147.660156 220.300781 C 145.199219 220.300781 142.800781 220.300781 140.339844 220.300781 C 140.339844 217.839844 140.339844 215.507812 140.339844 213.042969 Z M 140.339844 213.042969 " fill-opacity="1" fill-rule="nonzero"/><path fill="#000000" d="M 176.691406 89.40625 C 174.230469 89.40625 171.894531 89.40625 169.433594 89.40625 C 169.433594 87.007812 169.433594 84.609375 169.433594 82.210938 C 171.832031 82.210938 174.230469 82.210938 176.691406 82.210938 C 176.691406 84.546875 176.691406 86.941406 176.691406 89.40625 Z M 176.691406 89.40625 " fill-opacity="1" fill-rule="nonzero"/><path fill="#000000" d="M 89.40625 147.660156 C 87.007812 147.660156 84.609375 147.660156 82.210938 147.660156 C 82.210938 145.199219 82.210938 142.800781 82.210938 140.339844 C 84.609375 140.339844 86.941406 140.339844 89.40625 140.339844 C 89.40625 142.734375 89.40625 145.132812 89.40625 147.660156 Z M 89.40625 147.660156 " fill-opacity="1" fill-rule="nonzero"/><path fill="#000000" d="M 67.566406 212.980469 C 67.566406 210.582031 67.566406 208.183594 67.566406 205.785156 C 67.566406 205.785156 67.632812 205.722656 67.632812 205.722656 C 70.03125 205.722656 72.429688 205.722656 74.824219 205.722656 C 74.824219 208.25 74.824219 210.644531 74.824219 213.109375 C 72.363281 213.109375 70.03125 213.109375 67.632812 213.109375 C 67.632812 213.042969 67.566406 213.042969 67.566406 212.980469 Z M 67.566406 212.980469 " fill-opacity="1" fill-rule="nonzero"/><path fill="#000000" d="M 205.785156 60.308594 C 208.183594 60.308594 210.515625 60.308594 212.980469 60.308594 C 212.980469 65.171875 212.980469 69.964844 212.980469 74.824219 C 210.582031 74.824219 208.25 74.824219 205.722656 74.824219 C 205.722656 70.03125 205.722656 65.171875 205.722656 60.375 C 205.722656 60.308594 205.785156 60.308594 205.785156 60.308594 Z M 205.785156 60.308594 " fill-opacity="1" fill-rule="nonzero"/><path fill="#000000" d="M 89.40625 213.042969 C 89.40625 215.441406 89.40625 217.773438 89.40625 220.238281 C 87.007812 220.238281 84.609375 220.238281 82.148438 220.238281 C 82.148438 217.839844 82.148438 215.507812 82.148438 213.042969 C 84.546875 213.042969 86.941406 213.042969 89.40625 213.042969 Z M 89.40625 213.042969 " fill-opacity="1" fill-rule="nonzero"/><path fill="#000000" d="M 285.75 293.007812 C 285.75 290.542969 285.75 288.148438 285.75 285.683594 C 288.210938 285.683594 290.609375 285.683594 293.070312 285.683594 C 293.070312 288.082031 293.070312 290.480469 293.070312 293.007812 C 290.609375 293.007812 288.210938 293.007812 285.75 293.007812 Z M 285.75 293.007812 " fill-opacity="1" fill-rule="nonzero"/><path fill="#000000" d="M 53.117188 300.265625 C 60.375 300.265625 67.566406 300.265625 74.824219 300.265625 C 74.824219 307.585938 74.824219 314.78125 74.824219 322.101562 C 67.566406 322.101562 60.375 322.101562 53.117188 322.101562 C 53.117188 314.84375 53.117188 307.652344 53.117188 300.265625 Z M 53.117188 300.265625 " fill-opacity="1" fill-rule="nonzero"/><path fill="#000000" d="M 322.101562 74.824219 C 314.84375 74.824219 307.585938 74.824219 300.265625 74.824219 C 300.265625 67.566406 300.265625 60.375 300.265625 53.050781 C 307.523438 53.050781 314.78125 53.050781 322.101562 53.050781 C 322.101562 60.308594 322.101562 67.566406 322.101562 74.824219 Z M 322.101562 74.824219 " fill-opacity="1" fill-rule="nonzero"/><path fill="#000000" d="M 74.890625 53.050781 C 74.890625 60.308594 74.890625 67.503906 74.890625 74.824219 C 67.632812 74.824219 60.441406 74.824219 53.117188 74.824219 C 53.117188 67.566406 53.117188 60.375 53.117188 53.050781 C 60.308594 53.050781 67.566406 53.050781 74.890625 53.050781 Z M 74.890625 53.050781 " fill-opacity="1" fill-rule="nonzero"/></svg>