<svg xmlns="http://www.w3.org/2000/svg" xmlns:xlink="http://www.w3.org/1999/xlink" width="200" zoomAndPan="magnify" viewBox="0 0 150 149.999998" height="200" preserveAspectRatio="xMidYMid meet" version="1.0"><defs><clipPath id="55635031fd"><path d="M 29.390625 33.230469 L 120.890625 33.230469 L 120.890625 124.730469 L 29.390625 124.730469 Z M 29.390625 33.230469 " clip-rule="nonzero"/></clipPath></defs><g clip-path="url(#55635031fd)"><path fill="#004aad" d="M 120.890625 78.980469 C 120.890625 80.480469 120.816406 81.972656 120.667969 83.464844 C 120.523438 84.957031 120.304688 86.4375 120.011719 87.90625 C 119.71875 89.375 119.355469 90.828125 118.917969 92.261719 C 118.484375 93.695312 117.980469 95.105469 117.40625 96.488281 C 116.832031 97.871094 116.195312 99.226562 115.488281 100.546875 C 114.78125 101.867188 114.011719 103.152344 113.179688 104.398438 C 112.347656 105.644531 111.457031 106.84375 110.503906 108.003906 C 109.554688 109.160156 108.550781 110.269531 107.488281 111.332031 C 106.429688 112.390625 105.320312 113.394531 104.164062 114.34375 C 103.003906 115.296875 101.800781 116.1875 100.558594 117.019531 C 99.3125 117.851562 98.027344 118.621094 96.707031 119.328125 C 95.382812 120.035156 94.03125 120.675781 92.648438 121.246094 C 91.261719 121.820312 89.855469 122.324219 88.421875 122.761719 C 86.984375 123.195312 85.535156 123.558594 84.066406 123.851562 C 82.59375 124.144531 81.113281 124.363281 79.625 124.511719 C 78.132812 124.65625 76.636719 124.730469 75.140625 124.730469 C 73.640625 124.730469 72.144531 124.65625 70.65625 124.511719 C 69.164062 124.363281 67.683594 124.144531 66.214844 123.851562 C 64.746094 123.558594 63.292969 123.195312 61.859375 122.761719 C 60.425781 122.324219 59.015625 121.820312 57.632812 121.246094 C 56.246094 120.675781 54.894531 120.035156 53.574219 119.328125 C 52.25 118.621094 50.96875 117.851562 49.722656 117.019531 C 48.476562 116.1875 47.273438 115.296875 46.117188 114.34375 C 44.957031 113.394531 43.847656 112.390625 42.789062 111.332031 C 41.730469 110.269531 40.726562 109.160156 39.773438 108.003906 C 38.824219 106.84375 37.933594 105.644531 37.101562 104.398438 C 36.265625 103.152344 35.496094 101.867188 34.792969 100.546875 C 34.085938 99.226562 33.445312 97.871094 32.871094 96.488281 C 32.296875 95.105469 31.792969 93.695312 31.359375 92.261719 C 30.925781 90.828125 30.5625 89.375 30.269531 87.90625 C 29.976562 86.4375 29.757812 84.957031 29.609375 83.464844 C 29.464844 81.972656 29.390625 80.480469 29.390625 78.980469 C 29.390625 77.480469 29.464844 75.988281 29.609375 74.496094 C 29.757812 73.003906 29.976562 71.523438 30.269531 70.054688 C 30.5625 68.585938 30.925781 67.132812 31.359375 65.699219 C 31.792969 64.265625 32.296875 62.855469 32.871094 61.472656 C 33.445312 60.089844 34.085938 58.734375 34.792969 57.414062 C 35.496094 56.09375 36.265625 54.808594 37.101562 53.5625 C 37.933594 52.316406 38.824219 51.113281 39.773438 49.957031 C 40.726562 48.796875 41.730469 47.691406 42.789062 46.628906 C 43.847656 45.570312 44.957031 44.566406 46.117188 43.613281 C 47.273438 42.664062 48.476562 41.773438 49.722656 40.941406 C 50.96875 40.109375 52.25 39.339844 53.574219 38.632812 C 54.894531 37.925781 56.246094 37.285156 57.632812 36.710938 C 59.015625 36.140625 60.425781 35.636719 61.859375 35.199219 C 63.292969 34.765625 64.746094 34.402344 66.214844 34.109375 C 67.683594 33.816406 69.164062 33.597656 70.65625 33.449219 C 72.144531 33.304688 73.640625 33.230469 75.140625 33.230469 C 76.636719 33.230469 78.132812 33.304688 79.625 33.449219 C 81.113281 33.597656 82.59375 33.816406 84.066406 34.109375 C 85.535156 34.402344 86.984375 34.765625 88.421875 35.199219 C 89.855469 35.636719 91.261719 36.140625 92.648438 36.710938 C 94.03125 37.285156 95.382812 37.925781 96.707031 38.632812 C 98.027344 39.339844 99.3125 40.109375 100.558594 40.941406 C 101.800781 41.773438 103.003906 42.664062 104.164062 43.613281 C 105.320312 44.566406 106.429688 45.570312 107.488281 46.628906 C 108.550781 47.691406 109.554688 48.796875 110.503906 49.957031 C 111.457031 51.113281 112.347656 52.316406 113.179688 53.5625 C 114.011719 54.808594 114.78125 56.09375 115.488281 57.414062 C 116.195312 58.734375 116.832031 60.089844 117.40625 61.472656 C 117.980469 62.855469 118.484375 64.265625 118.917969 65.699219 C 119.355469 67.132812 119.71875 68.585938 120.011719 70.054688 C 120.304688 71.523438 120.523438 73.003906 120.667969 74.496094 C 120.816406 75.988281 120.890625 77.480469 120.890625 78.980469 Z M 120.890625 78.980469 " fill-opacity="1" fill-rule="nonzero"/></g><path fill="#ffffff" d="M 66.796875 95.050781 C 67.234375 95.050781 67.652344 95.132812 68.054688 95.300781 C 68.460938 95.46875 68.816406 95.703125 69.125 96.011719 C 69.433594 96.320312 69.671875 96.679688 69.835938 97.082031 C 70.003906 97.484375 70.089844 97.902344 70.089844 98.339844 C 70.089844 98.777344 70.003906 99.195312 69.835938 99.601562 C 69.671875 100.003906 69.433594 100.359375 69.125 100.667969 C 68.816406 100.976562 68.460938 101.214844 68.054688 101.378906 C 67.652344 101.546875 67.234375 101.632812 66.796875 101.632812 C 66.359375 101.632812 65.941406 101.546875 65.539062 101.378906 C 65.132812 101.214844 64.777344 100.976562 64.46875 100.667969 C 64.160156 100.359375 63.925781 100.003906 63.757812 99.601562 C 63.589844 99.195312 63.507812 98.777344 63.507812 98.339844 C 63.507812 97.902344 63.589844 97.484375 63.757812 97.082031 C 63.925781 96.679688 64.164062 96.324219 64.472656 96.015625 C 64.78125 95.707031 65.136719 95.46875 65.539062 95.300781 C 65.941406 95.132812 66.359375 95.050781 66.796875 95.050781 Z M 66.796875 91.894531 C 66.375 91.894531 65.953125 91.9375 65.539062 92.019531 C 65.125 92.101562 64.722656 92.222656 64.332031 92.386719 C 63.941406 92.546875 63.570312 92.746094 63.21875 92.980469 C 62.863281 93.21875 62.539062 93.484375 62.242188 93.785156 C 61.941406 94.082031 61.675781 94.410156 61.4375 94.761719 C 61.203125 95.113281 61.007812 95.484375 60.84375 95.875 C 60.683594 96.265625 60.558594 96.667969 60.476562 97.085938 C 60.394531 97.5 60.355469 97.917969 60.355469 98.34375 C 60.355469 98.765625 60.394531 99.183594 60.480469 99.601562 C 60.5625 100.015625 60.683594 100.417969 60.847656 100.808594 C 61.007812 101.199219 61.207031 101.570312 61.441406 101.921875 C 61.675781 102.273438 61.945312 102.601562 62.242188 102.898438 C 62.542969 103.199219 62.867188 103.464844 63.21875 103.699219 C 63.574219 103.9375 63.945312 104.132812 64.335938 104.296875 C 64.726562 104.457031 65.128906 104.582031 65.542969 104.664062 C 65.960938 104.746094 66.378906 104.785156 66.800781 104.785156 C 67.226562 104.785156 67.644531 104.746094 68.058594 104.664062 C 68.472656 104.578125 68.875 104.457031 69.269531 104.296875 C 69.660156 104.132812 70.03125 103.933594 70.382812 103.699219 C 70.734375 103.464844 71.058594 103.199219 71.359375 102.898438 C 71.65625 102.597656 71.925781 102.273438 72.160156 101.921875 C 72.394531 101.570312 72.59375 101.199219 72.753906 100.808594 C 72.917969 100.414062 73.039062 100.011719 73.121094 99.597656 C 73.207031 99.183594 73.246094 98.761719 73.246094 98.339844 C 73.246094 97.917969 73.203125 97.496094 73.121094 97.082031 C 73.039062 96.667969 72.914062 96.265625 72.753906 95.875 C 72.589844 95.484375 72.394531 95.113281 72.15625 94.757812 C 71.921875 94.40625 71.65625 94.082031 71.355469 93.78125 C 71.054688 93.484375 70.730469 93.214844 70.378906 92.980469 C 70.027344 92.746094 69.65625 92.546875 69.265625 92.386719 C 68.871094 92.222656 68.46875 92.101562 68.054688 92.019531 C 67.640625 91.9375 67.21875 91.894531 66.796875 91.894531 Z M 66.796875 91.894531 " fill-opacity="1" fill-rule="evenodd"/><path fill="#ffffff" d="M 84.757812 95.050781 C 85.195312 95.050781 85.617188 95.132812 86.019531 95.300781 C 86.421875 95.46875 86.777344 95.703125 87.085938 96.011719 C 87.394531 96.320312 87.632812 96.679688 87.800781 97.082031 C 87.96875 97.484375 88.050781 97.902344 88.050781 98.339844 C 88.050781 98.777344 87.96875 99.195312 87.800781 99.601562 C 87.632812 100.003906 87.394531 100.359375 87.085938 100.667969 C 86.777344 100.976562 86.421875 101.214844 86.019531 101.378906 C 85.617188 101.546875 85.195312 101.632812 84.757812 101.632812 C 84.324219 101.632812 83.902344 101.546875 83.5 101.378906 C 83.097656 101.214844 82.742188 100.976562 82.433594 100.667969 C 82.125 100.359375 81.886719 100.003906 81.71875 99.601562 C 81.550781 99.195312 81.46875 98.777344 81.46875 98.339844 C 81.46875 97.902344 81.554688 97.484375 81.71875 97.082031 C 81.886719 96.679688 82.125 96.324219 82.433594 96.015625 C 82.742188 95.707031 83.097656 95.46875 83.5 95.300781 C 83.902344 95.132812 84.324219 95.050781 84.757812 95.050781 Z M 84.757812 91.894531 C 84.335938 91.894531 83.917969 91.9375 83.503906 92.019531 C 83.085938 92.101562 82.683594 92.222656 82.292969 92.386719 C 81.902344 92.546875 81.53125 92.746094 81.179688 92.980469 C 80.828125 93.214844 80.5 93.484375 80.203125 93.78125 C 79.902344 94.082031 79.636719 94.40625 79.398438 94.757812 C 79.164062 95.109375 78.964844 95.484375 78.804688 95.875 C 78.640625 96.265625 78.519531 96.667969 78.4375 97.082031 C 78.355469 97.496094 78.3125 97.917969 78.3125 98.339844 C 78.3125 98.761719 78.355469 99.183594 78.4375 99.597656 C 78.519531 100.011719 78.640625 100.417969 78.804688 100.808594 C 78.964844 101.199219 79.164062 101.570312 79.398438 101.921875 C 79.636719 102.273438 79.902344 102.597656 80.203125 102.898438 C 80.5 103.199219 80.828125 103.464844 81.179688 103.699219 C 81.53125 103.933594 81.902344 104.132812 82.292969 104.296875 C 82.683594 104.457031 83.085938 104.578125 83.503906 104.664062 C 83.917969 104.746094 84.335938 104.785156 84.757812 104.785156 C 85.183594 104.785156 85.601562 104.746094 86.015625 104.664062 C 86.433594 104.578125 86.835938 104.457031 87.226562 104.296875 C 87.617188 104.132812 87.988281 103.933594 88.339844 103.699219 C 88.691406 103.464844 89.019531 103.199219 89.316406 102.898438 C 89.617188 102.597656 89.882812 102.273438 90.121094 101.921875 C 90.355469 101.570312 90.554688 101.199219 90.714844 100.808594 C 90.878906 100.417969 91 100.011719 91.082031 99.597656 C 91.164062 99.183594 91.207031 98.761719 91.207031 98.339844 C 91.207031 97.917969 91.164062 97.5 91.082031 97.082031 C 90.996094 96.667969 90.875 96.265625 90.714844 95.875 C 90.550781 95.484375 90.351562 95.113281 90.117188 94.761719 C 89.882812 94.410156 89.613281 94.082031 89.316406 93.785156 C 89.015625 93.484375 88.691406 93.21875 88.339844 92.984375 C 87.988281 92.746094 87.617188 92.546875 87.226562 92.386719 C 86.835938 92.222656 86.433594 92.101562 86.015625 92.019531 C 85.601562 91.9375 85.183594 91.894531 84.757812 91.894531 Z M 84.757812 91.894531 " fill-opacity="1" fill-rule="evenodd"/><path fill="#ffffff" d="M 92.730469 59.125 C 93.246094 59.125 93.761719 59.175781 94.269531 59.277344 C 94.777344 59.378906 95.269531 59.527344 95.75 59.726562 C 96.226562 59.921875 96.679688 60.167969 97.113281 60.453125 C 97.542969 60.742188 97.941406 61.070312 98.308594 61.433594 C 98.671875 61.800781 99 62.199219 99.289062 62.628906 C 99.574219 63.0625 99.820312 63.515625 100.015625 63.992188 C 100.214844 64.472656 100.363281 64.964844 100.464844 65.472656 C 100.566406 65.980469 100.617188 66.496094 100.617188 67.011719 C 100.617188 67.53125 100.566406 68.042969 100.464844 68.550781 C 100.363281 69.058594 100.214844 69.550781 100.015625 70.03125 C 99.820312 70.507812 99.574219 70.964844 99.289062 71.394531 C 99 71.824219 98.671875 72.222656 98.308594 72.589844 C 97.941406 72.957031 97.542969 73.285156 97.113281 73.570312 C 96.679688 73.859375 96.226562 74.101562 95.75 74.300781 C 95.269531 74.5 94.777344 74.648438 94.269531 74.75 C 93.761719 74.851562 93.246094 74.902344 92.730469 74.902344 C 92.210938 74.902344 91.699219 74.851562 91.191406 74.75 C 90.683594 74.648438 90.191406 74.5 89.710938 74.300781 C 89.234375 74.101562 88.777344 73.859375 88.347656 73.570312 C 87.917969 73.285156 87.519531 72.957031 87.152344 72.589844 C 86.785156 72.222656 86.457031 71.824219 86.171875 71.394531 C 85.882812 70.964844 85.640625 70.507812 85.441406 70.03125 C 85.242188 69.550781 85.09375 69.058594 84.992188 68.550781 C 84.890625 68.042969 84.839844 67.53125 84.839844 67.011719 C 84.839844 66.496094 84.890625 65.980469 84.992188 65.472656 C 85.09375 64.964844 85.242188 64.472656 85.441406 63.992188 C 85.640625 63.515625 85.882812 63.0625 86.171875 62.628906 C 86.457031 62.199219 86.785156 61.800781 87.152344 61.433594 C 87.519531 61.070312 87.917969 60.742188 88.347656 60.453125 C 88.777344 60.167969 89.234375 59.921875 89.710938 59.726562 C 90.191406 59.527344 90.683594 59.378906 91.191406 59.277344 C 91.699219 59.175781 92.210938 59.125 92.730469 59.125 Z M 81.726562 66.066406 L 62.890625 66.066406 C 62.683594 66.066406 62.480469 66.105469 62.289062 66.1875 C 62.09375 66.265625 61.921875 66.378906 61.777344 66.527344 C 61.628906 66.675781 61.515625 66.847656 61.433594 67.039062 C 61.355469 67.234375 61.3125 67.433594 61.3125 67.644531 C 61.3125 67.851562 61.355469 68.054688 61.433594 68.246094 C 61.515625 68.441406 61.628906 68.609375 61.777344 68.757812 C 61.921875 68.90625 62.09375 69.019531 62.289062 69.101562 C 62.480469 69.179688 62.683594 69.222656 62.890625 69.222656 L 81.902344 69.222656 C 82.019531 69.792969 82.179688 70.355469 82.386719 70.902344 C 82.59375 71.453125 82.839844 71.980469 83.128906 72.488281 C 83.417969 72.996094 83.746094 73.480469 84.113281 73.9375 C 84.480469 74.390625 84.878906 74.816406 85.3125 75.210938 C 85.746094 75.601562 86.210938 75.960938 86.699219 76.277344 C 87.191406 76.597656 87.703125 76.875 88.238281 77.113281 C 88.773438 77.351562 89.320312 77.546875 89.886719 77.695312 C 90.453125 77.847656 91.027344 77.953125 91.609375 78.011719 C 90.421875 81.210938 89.269531 84.492188 88.535156 85.960938 C 88.390625 86.25 88.179688 86.480469 87.902344 86.648438 C 87.628906 86.820312 87.328125 86.90625 87.003906 86.90625 L 65.085938 86.90625 C 64.730469 86.90625 64.410156 86.804688 64.117188 86.605469 C 63.828125 86.40625 63.617188 86.144531 63.492188 85.8125 C 63.492188 85.8125 58.558594 63.675781 58.558594 63.675781 C 58.460938 63.222656 58.324219 62.785156 58.148438 62.359375 C 57.972656 61.933594 57.765625 61.523438 57.523438 61.132812 C 57.277344 60.742188 57.003906 60.371094 56.699219 60.027344 C 56.394531 59.683594 56.0625 59.367188 55.703125 59.078125 C 55.34375 58.789062 54.960938 58.53125 54.558594 58.308594 C 54.15625 58.085938 53.738281 57.894531 53.300781 57.742188 C 52.867188 57.589844 52.421875 57.472656 51.96875 57.394531 C 51.515625 57.316406 51.054688 57.277344 50.59375 57.277344 L 48.636719 57.277344 C 48.421875 57.269531 48.21875 57.300781 48.019531 57.375 C 47.820312 57.453125 47.648438 57.566406 47.496094 57.71875 C 47.347656 57.867188 47.234375 58.042969 47.15625 58.238281 C 47.082031 58.4375 47.046875 58.644531 47.058594 58.855469 C 47.058594 59.066406 47.097656 59.265625 47.179688 59.460938 C 47.257812 59.652344 47.371094 59.824219 47.519531 59.972656 C 47.667969 60.121094 47.839844 60.234375 48.03125 60.3125 C 48.226562 60.394531 48.425781 60.433594 48.636719 60.433594 L 50.597656 60.433594 C 51.167969 60.433594 51.722656 60.527344 52.257812 60.714844 C 52.792969 60.90625 53.285156 61.175781 53.730469 61.53125 C 54.171875 61.890625 54.546875 62.308594 54.847656 62.792969 C 55.148438 63.273438 55.359375 63.792969 55.484375 64.351562 L 60.425781 86.5625 C 60.4375 86.617188 60.453125 86.667969 60.472656 86.71875 C 60.632812 87.203125 60.863281 87.652344 61.167969 88.0625 C 61.46875 88.476562 61.828125 88.832031 62.242188 89.128906 C 62.65625 89.429688 63.105469 89.65625 63.59375 89.8125 C 64.078125 89.96875 64.578125 90.046875 65.085938 90.046875 L 87.003906 90.046875 C 87.453125 90.046875 87.898438 89.988281 88.332031 89.863281 C 88.769531 89.738281 89.179688 89.558594 89.5625 89.320312 C 89.945312 89.082031 90.292969 88.796875 90.597656 88.464844 C 90.902344 88.128906 91.15625 87.761719 91.355469 87.355469 C 92.21875 85.636719 93.652344 81.492188 95.046875 77.8125 C 95.710938 77.671875 96.355469 77.46875 96.984375 77.207031 C 97.609375 76.945312 98.207031 76.628906 98.773438 76.257812 C 99.34375 75.886719 99.871094 75.464844 100.363281 74.996094 C 100.851562 74.527344 101.296875 74.015625 101.691406 73.464844 C 102.089844 72.914062 102.429688 72.332031 102.71875 71.71875 C 103.007812 71.105469 103.238281 70.46875 103.410156 69.8125 C 103.582031 69.15625 103.691406 68.488281 103.742188 67.8125 C 103.792969 67.132812 103.777344 66.460938 103.703125 65.785156 C 103.625 65.109375 103.488281 64.449219 103.292969 63.800781 C 103.09375 63.148438 102.839844 62.523438 102.527344 61.921875 C 102.210938 61.320312 101.847656 60.75 101.429688 60.214844 C 101.011719 59.683594 100.546875 59.191406 100.039062 58.742188 C 99.53125 58.292969 98.984375 57.890625 98.402344 57.542969 C 97.820312 57.195312 97.210938 56.902344 96.574219 56.664062 C 95.9375 56.429688 95.285156 56.253906 94.617188 56.136719 C 93.949219 56.019531 93.277344 55.964844 92.597656 55.972656 C 91.917969 55.980469 91.246094 56.050781 90.582031 56.183594 C 89.914062 56.316406 89.265625 56.507812 88.636719 56.757812 C 88.007812 57.011719 87.402344 57.316406 86.832031 57.679688 C 86.257812 58.042969 85.71875 58.453125 85.222656 58.914062 C 84.726562 59.375 84.273438 59.878906 83.867188 60.425781 C 83.464844 60.96875 83.109375 61.546875 82.8125 62.15625 C 82.511719 62.765625 82.273438 63.394531 82.089844 64.050781 C 81.910156 64.703125 81.789062 65.367188 81.726562 66.042969 Z M 81.726562 66.066406 " fill-opacity="1" fill-rule="evenodd"/><path fill="#ffffff" d="M 91.152344 65.433594 L 87.996094 65.433594 C 87.789062 65.433594 87.585938 65.476562 87.394531 65.554688 C 87.199219 65.636719 87.027344 65.75 86.882812 65.898438 C 86.734375 66.046875 86.621094 66.214844 86.539062 66.410156 C 86.460938 66.601562 86.417969 66.804688 86.417969 67.011719 C 86.417969 67.222656 86.460938 67.421875 86.539062 67.617188 C 86.621094 67.808594 86.734375 67.980469 86.882812 68.128906 C 87.027344 68.277344 87.199219 68.390625 87.394531 68.46875 C 87.585938 68.550781 87.789062 68.589844 87.996094 68.589844 L 91.152344 68.589844 L 91.152344 71.746094 C 91.152344 71.953125 91.191406 72.15625 91.273438 72.347656 C 91.351562 72.542969 91.464844 72.714844 91.613281 72.859375 C 91.761719 73.007812 91.933594 73.121094 92.125 73.203125 C 92.320312 73.28125 92.519531 73.324219 92.730469 73.324219 C 92.9375 73.324219 93.140625 73.28125 93.332031 73.203125 C 93.527344 73.121094 93.695312 73.007812 93.84375 72.859375 C 93.992188 72.714844 94.105469 72.542969 94.1875 72.347656 C 94.265625 72.15625 94.308594 71.953125 94.308594 71.746094 L 94.308594 68.589844 L 97.460938 68.589844 C 97.671875 68.589844 97.871094 68.550781 98.066406 68.46875 C 98.257812 68.390625 98.429688 68.277344 98.578125 68.128906 C 98.726562 67.980469 98.839844 67.808594 98.917969 67.617188 C 99 67.421875 99.039062 67.222656 99.039062 67.011719 C 99.039062 66.804688 99 66.601562 98.917969 66.410156 C 98.839844 66.214844 98.726562 66.046875 98.578125 65.898438 C 98.429688 65.75 98.257812 65.636719 98.066406 65.554688 C 97.871094 65.476562 97.671875 65.433594 97.460938 65.433594 L 94.308594 65.433594 L 94.308594 62.28125 C 94.308594 62.070312 94.265625 61.871094 94.1875 61.675781 C 94.105469 61.484375 93.992188 61.3125 93.84375 61.164062 C 93.695312 61.015625 93.527344 60.902344 93.332031 60.824219 C 93.140625 60.742188 92.9375 60.703125 92.730469 60.703125 C 92.519531 60.703125 92.320312 60.742188 92.125 60.824219 C 91.933594 60.902344 91.761719 61.015625 91.613281 61.164062 C 91.464844 61.3125 91.351562 61.484375 91.273438 61.675781 C 91.191406 61.871094 91.152344 62.070312 91.152344 62.28125 Z M 91.152344 65.433594 " fill-opacity="1" fill-rule="evenodd"/></svg>