<svg xmlns="http://www.w3.org/2000/svg" xmlns:xlink="http://www.w3.org/1999/xlink" width="200" zoomAndPan="magnify" viewBox="0 0 150 149.999998" height="200" preserveAspectRatio="xMidYMid meet" version="1.0"><defs><clipPath id="8b1fe14ef3"><path d="M 40.730469 33.835938 L 100.730469 33.835938 L 100.730469 93.835938 L 40.730469 93.835938 Z M 40.730469 33.835938 " clip-rule="nonzero"/></clipPath></defs><g clip-path="url(#8b1fe14ef3)"><path fill="#004aad" d="M 58.730469 81.835938 C 55.414062 81.835938 52.761719 84.523438 52.761719 87.835938 C 52.761719 91.152344 55.414062 93.835938 58.730469 93.835938 C 62.046875 93.835938 64.730469 91.152344 64.730469 87.835938 C 64.730469 84.523438 62.046875 81.835938 58.730469 81.835938 Z M 40.730469 33.835938 L 40.730469 39.835938 L 46.730469 39.835938 L 57.515625 62.59375 L 53.464844 69.941406 C 53 70.8125 52.730469 71.789062 52.730469 72.835938 C 52.730469 76.152344 55.414062 78.835938 58.730469 78.835938 L 94.730469 78.835938 L 94.730469 72.835938 L 60.003906 72.835938 C 59.585938 72.835938 59.253906 72.507812 59.253906 72.085938 C 59.253906 71.953125 59.285156 71.832031 59.34375 71.726562 L 62.03125 66.835938 L 84.378906 66.835938 C 86.628906 66.835938 88.59375 65.59375 89.628906 63.746094 L 100.355469 44.277344 C 100.59375 43.855469 100.730469 43.363281 100.730469 42.835938 C 100.730469 41.171875 99.378906 39.835938 97.730469 39.835938 L 53.375 39.835938 L 50.523438 33.835938 Z M 88.730469 81.835938 C 85.414062 81.835938 82.761719 84.523438 82.761719 87.835938 C 82.761719 91.152344 85.414062 93.835938 88.730469 93.835938 C 92.046875 93.835938 94.730469 91.152344 94.730469 87.835938 C 94.730469 84.523438 92.046875 81.835938 88.730469 81.835938 Z M 88.730469 81.835938 " fill-opacity="1" fill-rule="nonzero"/></g></svg>