<svg width="44" height="44" viewBox="0 0 44 44" fill="none" xmlns="http://www.w3.org/2000/svg">
<path d="M29.6011 34.9452C29.8567 34.6898 30.0594 34.3865 30.1977 34.0528C30.336 33.719 30.4072 33.3613 30.4072 33C30.4072 32.6387 30.336 32.281 30.1977 31.9472C30.0594 31.6134 29.8567 31.3102 29.6011 31.0548L21.1953 22.6472C21.0235 22.4753 20.9269 22.2421 20.9269 21.9991C20.9269 21.756 21.0235 21.5229 21.1953 21.351L29.6011 12.9452C30.117 12.4295 30.407 11.73 30.4071 11.0006C30.4073 10.2712 30.1177 9.57163 29.6021 9.05574C29.0864 8.53985 28.387 8.24993 27.6575 8.24976C26.9281 8.24958 26.2285 8.53917 25.7126 9.05482L17.305 17.4625C16.7091 18.0583 16.2364 18.7657 15.9139 19.5443C15.5913 20.3228 15.4254 21.1573 15.4254 22C15.4254 22.8427 15.5913 23.6771 15.9139 24.4557C16.2364 25.2342 16.7091 25.9416 17.305 26.5375L25.7126 34.9452C26.2283 35.4607 26.9277 35.7503 27.6569 35.7503C28.3861 35.7503 29.0854 35.4607 29.6011 34.9452Z" fill="#0D2150"/>
</svg>
