<svg width="44" height="44" viewBox="0 0 44 44" fill="none" xmlns="http://www.w3.org/2000/svg">
<path d="M14.3989 9.05485C14.1433 9.31023 13.9406 9.61347 13.8023 9.94723C13.664 10.281 13.5928 10.6387 13.5928 11C13.5928 11.3613 13.664 11.719 13.8023 12.0528C13.9406 12.3866 14.1433 12.6898 14.3989 12.9452L22.8047 21.3528C22.9765 21.5247 23.0731 21.7579 23.0731 22.0009C23.0731 22.244 22.9765 22.4771 22.8047 22.649L14.3989 31.0548C13.883 31.5705 13.593 32.27 13.5929 32.9994C13.5927 33.7288 13.8823 34.4284 14.3979 34.9443C14.9136 35.4602 15.613 35.7501 16.3425 35.7502C17.0719 35.7504 17.7715 35.4608 18.2874 34.9452L26.695 26.5375C27.2909 25.9417 27.7636 25.2343 28.0861 24.4557C28.4087 23.6772 28.5746 22.8427 28.5746 22C28.5746 21.1573 28.4087 20.3229 28.0861 19.5443C27.7636 18.7658 27.2909 18.0584 26.695 17.4625L18.2874 9.05485C17.7717 8.5393 17.0723 8.24968 16.3431 8.24968C15.6139 8.24968 14.9146 8.5393 14.3989 9.05485Z" fill="#0D2150"/>
</svg>
