<svg xmlns="http://www.w3.org/2000/svg" xmlns:xlink="http://www.w3.org/1999/xlink" width="200" zoomAndPan="magnify" viewBox="0 0 150 149.999998" height="200" preserveAspectRatio="xMidYMid meet" version="1.0"><defs><clipPath id="eb4b9dc453"><path d="M 34.535156 35 L 126.035156 35 L 126.035156 114.140625 L 34.535156 114.140625 Z M 34.535156 35 " clip-rule="nonzero"/></clipPath></defs><g clip-path="url(#eb4b9dc453)"><path fill="#0d2150" d="M 80.28125 35.5 L 115.527344 48.914062 L 77.96875 62.449219 L 44.511719 49.125 Z M 39.765625 51.8125 L 74.925781 65.8125 L 70.027344 74.84375 L 34.566406 61.179688 Z M 40.460938 68.539062 L 69.558594 79.488281 C 69.804688 79.585938 70.410156 79.628906 70.660156 79.628906 C 71.421875 79.628906 72.925781 79.21875 73.304688 78.519531 L 77.035156 73.097656 L 77.035156 114.042969 L 40.460938 100.046875 Z M 116.65625 99.984375 L 80.082031 114.152344 L 80.082031 71.507812 L 85.664062 79.550781 C 86.066406 80.132812 86.722656 80.464844 87.398438 80.464844 C 87.65625 80.464844 87.089844 80.421875 87.335938 80.328125 L 116.652344 68.710938 Z M 88.183594 75.75 L 81.261719 65.78125 L 120.683594 51.585938 L 126.007812 61.179688 Z M 88.183594 75.75 " fill-opacity="1" fill-rule="nonzero"/></g></svg>