<svg xmlns="http://www.w3.org/2000/svg" xmlns:xlink="http://www.w3.org/1999/xlink" width="200" zoomAndPan="magnify" viewBox="0 0 150 149.999998" height="200" preserveAspectRatio="xMidYMid meet" version="1.0"><defs><clipPath id="5419a8de56"><path d="M 31.625 42.113281 L 118.625 42.113281 L 118.625 102.863281 L 31.625 102.863281 Z M 31.625 42.113281 " clip-rule="nonzero"/></clipPath></defs><g clip-path="url(#5419a8de56)"><path fill="#0d2150" d="M 34.695312 82.597656 L 34.695312 45.820312 C 34.695312 43.773438 36.363281 42.117188 38.417969 42.117188 L 75.398438 42.117188 C 77.457031 42.117188 79.121094 43.773438 79.121094 45.820312 L 79.121094 82.597656 C 79.121094 83.277344 78.566406 83.828125 77.882812 83.828125 L 35.9375 83.828125 C 35.25 83.828125 34.695312 83.277344 34.695312 82.597656 Z M 64.558594 95.195312 C 64.558594 99.433594 61.101562 102.871094 56.835938 102.871094 C 52.574219 102.871094 49.117188 99.433594 49.117188 95.195312 C 49.117188 90.957031 52.574219 87.519531 56.835938 87.519531 C 61.101562 87.519531 64.558594 90.957031 64.558594 95.195312 Z M 60.699219 95.195312 C 60.699219 93.078125 58.96875 91.359375 56.835938 91.359375 C 54.703125 91.359375 52.976562 93.078125 52.976562 95.195312 C 52.976562 97.316406 54.703125 99.035156 56.835938 99.035156 C 58.96875 99.035156 60.699219 97.316406 60.699219 95.195312 Z M 50.1875 87.519531 L 32.882812 87.519531 C 32.199219 87.519531 31.644531 88.074219 31.644531 88.753906 L 31.644531 92.496094 C 31.644531 93.175781 32.199219 93.730469 32.882812 93.730469 L 46.753906 93.730469 C 47.117188 91.261719 48.371094 89.078125 50.1875 87.519531 Z M 104.960938 95.195312 C 104.960938 99.433594 101.5 102.871094 97.238281 102.871094 C 92.972656 102.871094 89.515625 99.433594 89.515625 95.195312 C 89.515625 90.957031 92.972656 87.519531 97.238281 87.519531 C 101.5 87.519531 104.960938 90.957031 104.960938 95.195312 Z M 101.097656 95.195312 C 101.097656 93.078125 99.371094 91.359375 97.238281 91.359375 C 95.105469 91.359375 93.375 93.078125 93.375 95.195312 C 93.375 97.316406 95.105469 99.035156 97.238281 99.035156 C 99.371094 99.035156 101.097656 97.316406 101.097656 95.195312 Z M 118.609375 88.753906 L 118.609375 92.496094 C 118.609375 93.175781 118.054688 93.730469 117.367188 93.730469 L 107.320312 93.730469 C 106.601562 88.832031 102.363281 85.054688 97.238281 85.054688 C 92.113281 85.054688 87.871094 88.832031 87.152344 93.730469 L 66.921875 93.730469 C 66.558594 91.261719 65.304688 89.078125 63.488281 87.519531 L 82.671875 87.519531 L 82.671875 52.238281 C 82.671875 50.875 83.78125 49.773438 85.152344 49.773438 L 96.867188 49.773438 C 100.167969 49.773438 103.25 51.398438 105.097656 54.117188 L 112.648438 65.238281 C 113.757812 66.867188 114.347656 68.789062 114.347656 70.757812 L 114.347656 87.519531 L 117.367188 87.519531 C 118.054688 87.519531 118.609375 88.074219 118.609375 88.753906 Z M 106.019531 65.523438 L 99.980469 56.992188 C 99.75 56.664062 99.371094 56.46875 98.964844 56.46875 L 89.546875 56.46875 C 88.859375 56.46875 88.304688 57.019531 88.304688 57.703125 L 88.304688 66.230469 C 88.304688 66.914062 88.859375 67.464844 89.546875 67.464844 L 105.007812 67.464844 C 106.011719 67.464844 106.597656 66.339844 106.019531 65.523438 Z M 106.019531 65.523438 " fill-opacity="1" fill-rule="nonzero"/></g></svg>