<svg xmlns="http://www.w3.org/2000/svg" xmlns:xlink="http://www.w3.org/1999/xlink" width="200" zoomAndPan="magnify" viewBox="0 0 150 149.999998" height="200" preserveAspectRatio="xMidYMid meet" version="1.0"><defs><clipPath id="dee603ccf6"><path d="M 45 50.289062 L 105 50.289062 L 105 85 L 45 85 Z M 45 50.289062 " clip-rule="nonzero"/></clipPath><clipPath id="61fc2f6e71"><path d="M 63 85 L 78 85 L 78 99.789062 L 63 99.789062 Z M 63 85 " clip-rule="nonzero"/></clipPath><clipPath id="e2da34ae80"><path d="M 84 85 L 99 85 L 99 99.789062 L 84 99.789062 Z M 84 85 " clip-rule="nonzero"/></clipPath></defs><g clip-path="url(#dee603ccf6)"><path fill="#004aad" d="M 96.75 84.832031 L 64.722656 84.832031 C 63.898438 84.832031 63.167969 84.300781 62.914062 83.515625 L 53.347656 54.105469 L 46.902344 54.105469 C 45.851562 54.105469 45 53.253906 45 52.199219 C 45 51.148438 45.851562 50.296875 46.902344 50.296875 L 54.730469 50.296875 C 55.550781 50.296875 56.28125 50.824219 56.535156 51.609375 L 66.101562 81.023438 L 95.292969 81.023438 L 101.054688 59.703125 C 101.328125 58.6875 102.375 58.085938 103.386719 58.363281 C 104.402344 58.636719 105 59.683594 104.726562 60.699219 L 98.585938 83.425781 C 98.363281 84.253906 97.609375 84.832031 96.75 84.832031 Z M 96.75 84.832031 " fill-opacity="1" fill-rule="nonzero"/></g><path fill="#004aad" d="M 102.890625 61.527344 L 57.859375 61.527344 C 56.808594 61.527344 55.957031 60.671875 55.957031 59.621094 C 55.957031 58.570312 56.808594 57.714844 57.859375 57.714844 L 102.890625 57.714844 C 103.941406 57.714844 104.792969 58.570312 104.792969 59.621094 C 104.792969 60.671875 103.941406 61.527344 102.890625 61.527344 Z M 102.890625 61.527344 " fill-opacity="1" fill-rule="nonzero"/><g clip-path="url(#61fc2f6e71)"><path fill="#004aad" d="M 70.542969 99.78125 C 66.683594 99.78125 63.542969 96.632812 63.542969 92.769531 C 63.542969 88.902344 66.683594 85.757812 70.542969 85.757812 C 74.402344 85.757812 77.542969 88.902344 77.542969 92.769531 C 77.542969 96.632812 74.402344 99.78125 70.542969 99.78125 Z M 70.542969 89.566406 C 68.78125 89.566406 67.347656 91.003906 67.347656 92.769531 C 67.347656 94.535156 68.78125 95.96875 70.542969 95.96875 C 72.304688 95.96875 73.738281 94.535156 73.738281 92.769531 C 73.738281 91.003906 72.304688 89.566406 70.542969 89.566406 Z M 70.542969 89.566406 " fill-opacity="1" fill-rule="nonzero"/></g><g clip-path="url(#e2da34ae80)"><path fill="#004aad" d="M 91.855469 99.78125 C 87.996094 99.78125 84.855469 96.632812 84.855469 92.769531 C 84.855469 88.902344 87.996094 85.757812 91.855469 85.757812 C 95.714844 85.757812 98.855469 88.902344 98.855469 92.769531 C 98.855469 96.632812 95.714844 99.78125 91.855469 99.78125 Z M 91.855469 89.566406 C 90.09375 89.566406 88.660156 91.003906 88.660156 92.769531 C 88.660156 94.535156 90.09375 95.96875 91.855469 95.96875 C 93.617188 95.96875 95.050781 94.535156 95.050781 92.769531 C 95.050781 91.003906 93.617188 89.566406 91.855469 89.566406 Z M 91.855469 89.566406 " fill-opacity="1" fill-rule="nonzero"/></g></svg>