<svg xmlns="http://www.w3.org/2000/svg" xmlns:xlink="http://www.w3.org/1999/xlink" width="200" zoomAndPan="magnify" viewBox="0 0 150 149.999998" height="200" preserveAspectRatio="xMidYMid meet" version="1.0"><defs><clipPath id="39e8a6b78e"><path d="M 30.699219 69 L 104 69 L 104 113.339844 L 30.699219 113.339844 Z M 30.699219 69 " clip-rule="nonzero"/></clipPath></defs><path fill="#0d2150" d="M 34.550781 65.3125 L 53.078125 65.3125 L 97.671875 43.128906 L 96.675781 41.128906 C 95.15625 38.082031 91.421875 36.832031 88.375 38.347656 L 34.164062 65.316406 C 34.15625 65.324219 34.148438 65.328125 34.136719 65.332031 C 34.273438 65.328125 34.410156 65.3125 34.550781 65.3125 Z M 34.550781 65.3125 " fill-opacity="1" fill-rule="nonzero"/><path fill="#0d2150" d="M 110.871094 69.617188 L 101.261719 50.335938 L 71.152344 65.3125 L 99.445312 65.3125 C 103.097656 65.3125 106.082031 68.097656 106.082031 71.5 L 106.082031 78.90625 L 108.089844 77.90625 C 111.132812 76.394531 112.386719 72.660156 110.871094 69.617188 Z M 110.871094 69.617188 " fill-opacity="1" fill-rule="nonzero"/><g clip-path="url(#39e8a6b78e)"><path fill="#0d2150" d="M 97.484375 69.144531 L 36.929688 69.144531 C 33.523438 69.144531 30.738281 71.929688 30.738281 75.332031 L 30.738281 107.152344 C 30.738281 110.554688 33.523438 113.339844 36.929688 113.339844 L 97.484375 113.339844 C 100.886719 113.339844 103.671875 110.554688 103.671875 107.152344 L 103.671875 75.332031 C 103.671875 71.929688 100.886719 69.144531 97.484375 69.144531 Z M 35.6875 78.546875 L 82.238281 78.546875 L 82.238281 82.617188 L 35.6875 82.617188 Z M 45.644531 106.40625 C 44.769531 107.257812 43.566406 107.785156 42.25 107.785156 C 39.550781 107.785156 37.367188 105.601562 37.367188 102.90625 C 37.367188 100.210938 39.546875 98.027344 42.25 98.027344 C 43.570312 98.027344 44.773438 98.554688 45.644531 99.40625 C 44.730469 100.289062 44.160156 101.53125 44.160156 102.90625 C 44.164062 104.28125 44.730469 105.523438 45.644531 106.40625 Z M 50.109375 107.785156 C 48.785156 107.785156 47.582031 107.257812 46.710938 106.40625 C 47.625 105.523438 48.195312 104.28125 48.195312 102.90625 C 48.195312 101.53125 47.628906 100.289062 46.710938 99.40625 C 47.585938 98.554688 48.789062 98.027344 50.109375 98.027344 C 52.804688 98.027344 54.992188 100.210938 54.992188 102.90625 C 54.992188 105.597656 52.808594 107.785156 50.109375 107.785156 Z M 74.296875 88.78125 L 35.6875 88.78125 L 35.6875 86.042969 L 74.296875 86.042969 Z M 96.566406 104.578125 C 96.566406 106.683594 94.84375 108.402344 92.742188 108.402344 L 82.847656 108.402344 C 80.746094 108.402344 79.023438 106.683594 79.023438 104.578125 L 79.023438 99.515625 C 79.023438 97.414062 80.746094 95.695312 82.847656 95.695312 L 92.742188 95.695312 C 94.84375 95.695312 96.566406 97.414062 96.566406 99.515625 Z M 96.566406 104.578125 " fill-opacity="1" fill-rule="nonzero"/></g></svg>