<svg xmlns="http://www.w3.org/2000/svg" xmlns:xlink="http://www.w3.org/1999/xlink" width="200" zoomAndPan="magnify" viewBox="0 0 150 149.999998" height="200" preserveAspectRatio="xMidYMid meet" version="1.0"><defs><clipPath id="163c02d5fb"><path d="M 36.800781 38.894531 L 113.214844 38.894531 L 113.214844 115.394531 L 36.800781 115.394531 Z M 36.800781 38.894531 " clip-rule="nonzero"/></clipPath></defs><path fill="#0d2150" d="M 87.570312 73.566406 L 73.644531 87.488281 C 73.15625 87.972656 72.4375 87.972656 71.957031 87.488281 L 62.453125 77.988281 C 61.972656 77.503906 61.972656 76.785156 62.453125 76.304688 L 66.398438 72.355469 C 66.882812 71.875 67.609375 71.875 68.089844 72.355469 L 72.839844 77.105469 L 82.011719 67.929688 C 82.496094 67.445312 83.222656 67.445312 83.703125 67.929688 L 87.644531 71.875 C 88.050781 72.355469 88.050781 73.078125 87.570312 73.566406 Z M 75.011719 55.050781 C 62.855469 55.050781 52.960938 64.953125 52.960938 77.105469 C 52.960938 89.261719 62.855469 99.15625 75.011719 99.15625 C 87.167969 99.15625 97.0625 89.261719 97.0625 77.105469 C 97.0625 64.953125 87.167969 55.050781 75.011719 55.050781 " fill-opacity="1" fill-rule="nonzero"/><g clip-path="url(#163c02d5fb)"><path fill="#0d2150" d="M 75.011719 102.859375 C 60.84375 102.859375 49.257812 91.347656 49.257812 77.105469 C 49.257812 62.855469 60.761719 51.351562 75.011719 51.351562 C 89.253906 51.351562 100.765625 62.855469 100.765625 77.105469 C 100.765625 91.347656 89.179688 102.859375 75.011719 102.859375 Z M 112.921875 77.914062 C 113.324219 77.421875 113.324219 76.785156 112.921875 76.378906 L 108.414062 71.066406 C 108.167969 70.746094 108.09375 70.347656 108.167969 69.941406 L 110.339844 63.34375 C 110.503906 62.78125 110.265625 62.136719 109.777344 61.890625 L 103.582031 58.753906 C 103.183594 58.589844 102.9375 58.191406 102.9375 57.789062 L 102.375 50.789062 C 102.375 50.222656 101.890625 49.742188 101.328125 49.742188 L 94.328125 49.179688 C 93.925781 49.179688 93.519531 48.933594 93.363281 48.53125 L 90.222656 42.339844 C 89.980469 41.773438 89.339844 41.53125 88.777344 41.773438 L 82.257812 43.949219 C 81.851562 44.105469 81.449219 44.03125 81.125 43.703125 L 75.820312 39.195312 C 75.332031 38.792969 74.691406 38.792969 74.285156 39.195312 L 68.972656 43.703125 C 68.65625 43.949219 68.253906 44.03125 67.847656 43.949219 L 61.246094 41.773438 C 60.6875 41.613281 60.042969 41.855469 59.796875 42.339844 L 56.660156 48.53125 C 56.496094 48.933594 56.097656 49.179688 55.695312 49.179688 L 48.695312 49.742188 C 48.128906 49.742188 47.648438 50.222656 47.648438 50.789062 L 47.085938 57.789062 C 47.085938 58.191406 46.839844 58.589844 46.4375 58.753906 L 40.246094 61.890625 C 39.683594 62.136719 39.4375 62.78125 39.683594 63.34375 L 41.855469 69.941406 C 42.011719 70.347656 41.929688 70.746094 41.609375 71.066406 L 37.101562 76.304688 C 36.699219 76.785156 36.699219 77.421875 37.101562 77.832031 L 41.609375 83.0625 C 41.855469 83.386719 41.929688 83.789062 41.855469 84.1875 L 39.601562 90.953125 C 39.4375 91.515625 39.683594 92.15625 40.164062 92.398438 L 46.359375 95.535156 C 46.765625 95.691406 47.003906 96.101562 47.003906 96.5 L 47.566406 103.421875 C 47.648438 103.984375 48.050781 104.46875 48.695312 104.550781 L 55.613281 105.113281 C 56.015625 105.113281 56.417969 105.359375 56.578125 105.757812 L 59.714844 111.953125 C 59.960938 112.515625 60.605469 112.761719 61.171875 112.515625 L 67.765625 110.34375 C 68.171875 110.179688 68.574219 110.269531 68.890625 110.585938 L 74.128906 115.097656 C 74.609375 115.496094 75.25 115.496094 75.65625 115.097656 L 80.886719 110.585938 C 81.207031 110.34375 81.613281 110.269531 82.011719 110.34375 L 88.613281 112.515625 C 89.179688 112.679688 89.816406 112.441406 90.0625 111.953125 L 93.199219 105.757812 C 93.363281 105.359375 93.761719 105.113281 94.164062 105.113281 L 101.085938 104.550781 C 101.648438 104.46875 102.136719 104.066406 102.210938 103.421875 L 102.78125 96.5 C 102.78125 96.101562 103.019531 95.691406 103.421875 95.535156 L 109.621094 92.398438 C 110.183594 92.15625 110.421875 91.515625 110.183594 90.953125 L 108.167969 84.351562 C 108.011719 83.945312 108.09375 83.542969 108.414062 83.222656 L 112.921875 77.914062 " fill-opacity="1" fill-rule="nonzero"/></g></svg>