<svg xmlns="http://www.w3.org/2000/svg" xmlns:xlink="http://www.w3.org/1999/xlink" width="200" zoomAndPan="magnify" viewBox="0 0 150 149.999998" height="200" preserveAspectRatio="xMidYMid meet" version="1.0"><defs><clipPath id="2fae7ffc94"><path d="M 46 95 L 72 95 L 72 125.414062 L 46 125.414062 Z M 46 95 " clip-rule="nonzero"/></clipPath><clipPath id="7bc35f0719"><path d="M 40.859375 27.164062 L 114.359375 27.164062 L 114.359375 102 L 40.859375 102 Z M 40.859375 27.164062 " clip-rule="nonzero"/></clipPath><clipPath id="7e0cdde931"><path d="M 83 95 L 109 95 L 109 125.414062 L 83 125.414062 Z M 83 95 " clip-rule="nonzero"/></clipPath></defs><g clip-path="url(#2fae7ffc94)"><path fill="#0d2150" d="M 58.394531 100.144531 C 57.484375 100.351562 56.578125 99.800781 56.285156 98.914062 L 55.308594 95.878906 L 46.800781 119.539062 L 56.421875 113.628906 C 56.898438 113.332031 57.464844 113.289062 57.984375 113.46875 C 58.507812 113.652344 58.914062 114.0625 59.097656 114.609375 L 62.726562 125.335938 L 71.621094 100.625 L 68.671875 97.933594 Z M 58.394531 100.144531 " fill-opacity="1" fill-rule="nonzero"/></g><path fill="#0d2150" d="M 73.433594 70.9375 C 72.730469 71.644531 71.597656 71.644531 70.894531 70.9375 L 64.925781 65.007812 L 62.046875 67.835938 L 72.164062 77.898438 L 76.335938 73.769531 L 93.171875 57.019531 L 90.3125 54.167969 Z M 73.433594 70.9375 " fill-opacity="1" fill-rule="nonzero"/><g clip-path="url(#7bc35f0719)"><path fill="#0d2150" d="M 107.824219 71.484375 L 114.359375 64.207031 L 107.800781 56.929688 C 107.417969 56.496094 107.257812 55.902344 107.371094 55.332031 L 109.414062 45.726562 L 100.132812 42.714844 C 99.589844 42.53125 99.136719 42.097656 98.953125 41.527344 L 95.984375 32.195312 L 86.433594 34.25 C 85.867188 34.363281 85.277344 34.203125 84.84375 33.816406 L 77.609375 27.242188 L 70.371094 33.835938 C 69.941406 34.226562 69.351562 34.386719 68.785156 34.269531 L 59.234375 32.21875 L 56.238281 41.550781 C 56.058594 42.097656 55.625 42.554688 55.058594 42.738281 L 45.78125 45.726562 L 47.824219 55.332031 C 47.9375 55.902344 47.777344 56.496094 47.390625 56.929688 L 40.859375 64.207031 L 47.414062 71.484375 C 47.800781 71.917969 47.957031 72.511719 47.84375 73.082031 L 45.804688 82.691406 L 55.082031 85.703125 C 55.625 85.882812 56.078125 86.316406 56.261719 86.886719 L 57.144531 89.625 L 59.253906 96.21875 L 68.804688 94.167969 C 68.941406 94.144531 69.054688 94.121094 69.191406 94.121094 C 69.644531 94.121094 70.078125 94.28125 70.417969 94.601562 L 77.609375 101.171875 L 84.84375 94.578125 C 85.277344 94.191406 85.867188 94.03125 86.433594 94.144531 L 95.984375 96.199219 L 98.09375 89.601562 L 98.976562 86.867188 C 99.160156 86.316406 99.589844 85.859375 100.15625 85.679688 L 109.433594 82.667969 L 107.394531 73.0625 C 107.257812 72.511719 107.417969 71.917969 107.824219 71.484375 Z M 77.609375 92.5 C 62.589844 92.5 50.386719 80.226562 50.386719 65.121094 C 50.386719 50.015625 62.589844 37.738281 77.609375 37.738281 C 92.625 37.738281 104.832031 50.015625 104.832031 65.121094 C 104.832031 80.226562 92.625 92.5 77.609375 92.5 Z M 77.609375 92.5 " fill-opacity="1" fill-rule="nonzero"/></g><g clip-path="url(#7e0cdde931)"><path fill="#0d2150" d="M 98.933594 98.914062 C 98.636719 99.800781 97.730469 100.328125 96.824219 100.144531 L 86.589844 97.933594 L 83.640625 100.625 L 92.535156 125.335938 L 96.164062 114.609375 C 96.347656 114.085938 96.753906 113.675781 97.277344 113.46875 C 97.796875 113.289062 98.363281 113.332031 98.839844 113.628906 L 108.460938 119.539062 L 99.953125 95.878906 Z M 98.933594 98.914062 " fill-opacity="1" fill-rule="nonzero"/></g><path fill="#0d2150" d="M 77.609375 41.390625 C 64.609375 41.390625 54.015625 52.046875 54.015625 65.121094 C 54.015625 78.195312 64.609375 88.851562 77.609375 88.851562 C 90.605469 88.851562 101.199219 78.195312 101.199219 65.121094 C 101.199219 52.046875 90.605469 41.390625 77.609375 41.390625 Z M 96.824219 57.019531 C 96.824219 58 96.4375 58.914062 95.757812 59.597656 L 74.726562 80.5 C 74.023438 81.207031 73.09375 81.546875 72.164062 81.546875 C 71.234375 81.546875 70.304688 81.207031 69.601562 80.5 L 59.460938 70.414062 C 58.78125 69.730469 58.394531 68.816406 58.394531 67.835938 C 58.394531 66.855469 58.78125 65.941406 59.460938 65.257812 L 62.339844 62.40625 C 63.746094 61.011719 66.039062 61.011719 67.46875 62.40625 L 72.164062 67.082031 L 87.75 51.589844 C 89.15625 50.199219 91.445312 50.199219 92.875 51.589844 L 95.757812 54.441406 C 96.4375 55.125 96.824219 56.039062 96.824219 57.019531 Z M 96.824219 57.019531 " fill-opacity="1" fill-rule="nonzero"/></svg>